<?xml version="1.0" encoding="UTF-8"?>
<svg xmlns="http://www.w3.org/2000/svg" version="1.1" width="1024" height="1024" viewBox="0 0 500 500"><rect x="0" y="0" width="500" height="500" fill="#ffffff"/><g transform="scale(16.129)"><g transform="translate(1,1)"><g><g transform="translate(3.5,3.5)"><path fill-rule="evenodd" d="M-3.5 0C-3.5 3.5 -3.5 3.5 0 3.5C3.5 3.5 3.5 3.5 3.5 0C3.5 -3.5 3.5 -3.5 0 -3.5C-3.5 -3.5 -3.5 -3.5 -3.5 0ZM-2.5 0L-2.5 -1.5A1 1 0 0 1 -1.5 -2.5L1.5 -2.5A1 1 0 0 1 2.5 -1.5L2.5 1.5A1 1 0 0 1 1.5 2.5L-1.5 2.5A1 1 0 0 1 -2.5 1.5Z" fill="#000000"/><path fill-rule="evenodd" d="M-1.5 0C-1.5 1.5 -1.5 1.5 0 1.5C1.5 1.5 1.5 1.5 1.5 0C1.5 -1.5 1.5 -1.5 0 -1.5C-1.5 -1.5 -1.5 -1.5 -1.5 0Z" fill="#000000"/></g></g><g><g transform="translate(25.5,3.5)"><g transform="rotate(90)"><path fill-rule="evenodd" d="M-3.5 0C-3.5 3.5 -3.5 3.5 0 3.5C3.5 3.5 3.5 3.5 3.5 0C3.5 -3.5 3.5 -3.5 0 -3.5C-3.5 -3.5 -3.5 -3.5 -3.5 0ZM-2.5 0L-2.5 -1.5A1 1 0 0 1 -1.5 -2.5L1.5 -2.5A1 1 0 0 1 2.5 -1.5L2.5 1.5A1 1 0 0 1 1.5 2.5L-1.5 2.5A1 1 0 0 1 -2.5 1.5Z" fill="#000000"/><path fill-rule="evenodd" d="M-1.5 0C-1.5 1.5 -1.5 1.5 0 1.5C1.5 1.5 1.5 1.5 1.5 0C1.5 -1.5 1.5 -1.5 0 -1.5C-1.5 -1.5 -1.5 -1.5 -1.5 0Z" fill="#000000"/></g></g></g><g><g transform="translate(3.5,25.5)"><g transform="rotate(-90)"><path fill-rule="evenodd" d="M-3.5 0C-3.5 3.5 -3.5 3.5 0 3.5C3.5 3.5 3.5 3.5 3.5 0C3.5 -3.5 3.5 -3.5 0 -3.5C-3.5 -3.5 -3.5 -3.5 -3.5 0ZM-2.5 0L-2.5 -1.5A1 1 0 0 1 -1.5 -2.5L1.5 -2.5A1 1 0 0 1 2.5 -1.5L2.5 1.5A1 1 0 0 1 1.5 2.5L-1.5 2.5A1 1 0 0 1 -2.5 1.5Z" fill="#000000"/><path fill-rule="evenodd" d="M-1.5 0C-1.5 1.5 -1.5 1.5 0 1.5C1.5 1.5 1.5 1.5 1.5 0C1.5 -1.5 1.5 -1.5 0 -1.5C-1.5 -1.5 -1.5 -1.5 -1.5 0Z" fill="#000000"/></g></g></g><path fill-rule="evenodd" d="M8.9 0.5C8.9 0.5 8.5 0.9 8.5 0.9C8.1 0.5 8.5 0.9 8.1 0.5A0.1 0.1 0 0 1 8.5 0.1A0.1 0.1 0 0 1 8.9 0.5ZM9.9 0.5C9.9 0.5 9.5 0.9 9.5 0.9C9.1 0.5 9.5 0.9 9.1 0.5A0.1 0.1 0 0 1 9.5 0.1A0.1 0.1 0 0 1 9.9 0.5ZM12.9 0.5C12.9 0.5 12.5 0.9 12.5 0.9C12.1 0.5 12.5 0.9 12.1 0.5A0.1 0.1 0 0 1 12.5 0.1A0.1 0.1 0 0 1 12.9 0.5ZM13.9 0.5C13.9 0.5 13.5 0.9 13.5 0.9C13.1 0.5 13.5 0.9 13.1 0.5A0.1 0.1 0 0 1 13.5 0.1A0.1 0.1 0 0 1 13.9 0.5ZM15.9 0.5C15.9 0.5 15.5 0.9 15.5 0.9C15.1 0.5 15.5 0.9 15.1 0.5A0.1 0.1 0 0 1 15.5 0.1A0.1 0.1 0 0 1 15.9 0.5ZM19.9 0.5C19.9 0.5 19.5 0.9 19.5 0.9C19.1 0.5 19.5 0.9 19.1 0.5A0.1 0.1 0 0 1 19.5 0.1A0.1 0.1 0 0 1 19.9 0.5ZM20.9 0.5C20.9 0.5 20.5 0.9 20.5 0.9C20.1 0.5 20.5 0.9 20.1 0.5A0.1 0.1 0 0 1 20.5 0.1A0.1 0.1 0 0 1 20.9 0.5ZM8.9 1.5C8.9 1.5 8.5 1.9 8.5 1.9C8.1 1.5 8.5 1.9 8.1 1.5A0.1 0.1 0 0 1 8.5 1.1A0.1 0.1 0 0 1 8.9 1.5ZM10.9 1.5C10.9 1.5 10.5 1.9 10.5 1.9C10.1 1.5 10.5 1.9 10.1 1.5A0.1 0.1 0 0 1 10.5 1.1A0.1 0.1 0 0 1 10.9 1.5ZM12.9 1.5C12.9 1.5 12.5 1.9 12.5 1.9C12.1 1.5 12.5 1.9 12.1 1.5A0.1 0.1 0 0 1 12.5 1.1A0.1 0.1 0 0 1 12.9 1.5ZM13.9 1.5C13.9 1.5 13.5 1.9 13.5 1.9C13.1 1.5 13.5 1.9 13.1 1.5A0.1 0.1 0 0 1 13.5 1.1A0.1 0.1 0 0 1 13.9 1.5ZM19.9 1.5C19.9 1.5 19.5 1.9 19.5 1.9C19.1 1.5 19.5 1.9 19.1 1.5A0.1 0.1 0 0 1 19.5 1.1A0.1 0.1 0 0 1 19.9 1.5ZM20.9 1.5C20.9 1.5 20.5 1.9 20.5 1.9C20.1 1.5 20.5 1.9 20.1 1.5A0.1 0.1 0 0 1 20.5 1.1A0.1 0.1 0 0 1 20.9 1.5ZM9.9 2.5C9.9 2.5 9.5 2.9 9.5 2.9C9.1 2.5 9.5 2.9 9.1 2.5A0.1 0.1 0 0 1 9.5 2.1A0.1 0.1 0 0 1 9.9 2.5ZM10.9 2.5C10.9 2.5 10.5 2.9 10.5 2.9C10.1 2.5 10.5 2.9 10.1 2.5A0.1 0.1 0 0 1 10.5 2.1A0.1 0.1 0 0 1 10.9 2.5ZM11.9 2.5C11.9 2.5 11.5 2.9 11.5 2.9C11.1 2.5 11.5 2.9 11.1 2.5A0.1 0.1 0 0 1 11.5 2.1A0.1 0.1 0 0 1 11.9 2.5ZM16.9 2.5C16.9 2.5 16.5 2.9 16.5 2.9C16.1 2.5 16.5 2.9 16.1 2.5A0.1 0.1 0 0 1 16.5 2.1A0.1 0.1 0 0 1 16.9 2.5ZM18.9 2.5C18.9 2.5 18.5 2.9 18.5 2.9C18.1 2.5 18.5 2.9 18.1 2.5A0.1 0.1 0 0 1 18.5 2.1A0.1 0.1 0 0 1 18.9 2.5ZM8.9 3.5C8.9 3.5 8.5 3.9 8.5 3.9C8.1 3.5 8.5 3.9 8.1 3.5A0.1 0.1 0 0 1 8.5 3.1A0.1 0.1 0 0 1 8.9 3.5ZM11.9 3.5C11.9 3.5 11.5 3.9 11.5 3.9C11.1 3.5 11.5 3.9 11.1 3.5A0.1 0.1 0 0 1 11.5 3.1A0.1 0.1 0 0 1 11.9 3.5ZM12.9 3.5C12.9 3.5 12.5 3.9 12.5 3.9C12.1 3.5 12.5 3.9 12.1 3.5A0.1 0.1 0 0 1 12.5 3.1A0.1 0.1 0 0 1 12.9 3.5ZM14.9 3.5C14.9 3.5 14.5 3.9 14.5 3.9C14.1 3.5 14.5 3.9 14.1 3.5A0.1 0.1 0 0 1 14.5 3.1A0.1 0.1 0 0 1 14.9 3.5ZM15.9 3.5C15.9 3.5 15.5 3.9 15.5 3.9C15.1 3.5 15.5 3.9 15.1 3.5A0.1 0.1 0 0 1 15.5 3.1A0.1 0.1 0 0 1 15.9 3.5ZM17.9 3.5C17.9 3.5 17.5 3.9 17.5 3.9C17.1 3.5 17.5 3.9 17.1 3.5A0.1 0.1 0 0 1 17.5 3.1A0.1 0.1 0 0 1 17.9 3.5ZM20.9 3.5C20.9 3.5 20.5 3.9 20.5 3.9C20.1 3.5 20.5 3.9 20.1 3.5A0.1 0.1 0 0 1 20.5 3.1A0.1 0.1 0 0 1 20.9 3.5ZM9.9 4.5C9.9 4.5 9.5 4.9 9.5 4.9C9.1 4.5 9.5 4.9 9.1 4.5A0.1 0.1 0 0 1 9.5 4.1A0.1 0.1 0 0 1 9.9 4.5ZM14.9 4.5C14.9 4.5 14.5 4.9 14.5 4.9C14.1 4.5 14.5 4.9 14.1 4.5A0.1 0.1 0 0 1 14.5 4.1A0.1 0.1 0 0 1 14.9 4.5ZM17.9 4.5C17.9 4.5 17.5 4.9 17.5 4.9C17.1 4.5 17.5 4.9 17.1 4.5A0.1 0.1 0 0 1 17.5 4.1A0.1 0.1 0 0 1 17.9 4.5ZM13.9 5.5C13.9 5.5 13.5 5.9 13.5 5.9C13.1 5.5 13.5 5.9 13.1 5.5A0.1 0.1 0 0 1 13.5 5.1A0.1 0.1 0 0 1 13.9 5.5ZM15.9 5.5C15.9 5.5 15.5 5.9 15.5 5.9C15.1 5.5 15.5 5.9 15.1 5.5A0.1 0.1 0 0 1 15.5 5.1A0.1 0.1 0 0 1 15.9 5.5ZM17.9 5.5C17.9 5.5 17.5 5.9 17.5 5.9C17.1 5.5 17.5 5.9 17.1 5.5A0.1 0.1 0 0 1 17.5 5.1A0.1 0.1 0 0 1 17.9 5.5ZM19.9 5.5C19.9 5.5 19.5 5.9 19.5 5.9C19.1 5.5 19.5 5.9 19.1 5.5A0.1 0.1 0 0 1 19.5 5.1A0.1 0.1 0 0 1 19.9 5.5ZM8.9 6.5C8.9 6.5 8.5 6.9 8.5 6.9C8.1 6.5 8.5 6.9 8.1 6.5A0.1 0.1 0 0 1 8.5 6.1A0.1 0.1 0 0 1 8.9 6.5ZM10.9 6.5C10.9 6.5 10.5 6.9 10.5 6.9C10.1 6.5 10.5 6.9 10.1 6.5A0.1 0.1 0 0 1 10.5 6.1A0.1 0.1 0 0 1 10.9 6.5ZM12.9 6.5C12.9 6.5 12.5 6.9 12.5 6.9C12.1 6.5 12.5 6.9 12.1 6.5A0.1 0.1 0 0 1 12.5 6.1A0.1 0.1 0 0 1 12.9 6.5ZM14.9 6.5C14.9 6.5 14.5 6.9 14.5 6.9C14.1 6.5 14.5 6.9 14.1 6.5A0.1 0.1 0 0 1 14.5 6.1A0.1 0.1 0 0 1 14.9 6.5ZM16.9 6.5C16.9 6.5 16.5 6.9 16.5 6.9C16.1 6.5 16.5 6.9 16.1 6.5A0.1 0.1 0 0 1 16.5 6.1A0.1 0.1 0 0 1 16.9 6.5ZM18.9 6.5C18.9 6.5 18.5 6.9 18.5 6.9C18.1 6.5 18.5 6.9 18.1 6.5A0.1 0.1 0 0 1 18.5 6.1A0.1 0.1 0 0 1 18.9 6.5ZM20.9 6.5C20.9 6.5 20.5 6.9 20.5 6.9C20.1 6.5 20.5 6.9 20.1 6.5A0.1 0.1 0 0 1 20.5 6.1A0.1 0.1 0 0 1 20.9 6.5ZM8.9 7.5C8.9 7.5 8.5 7.9 8.5 7.9C8.1 7.5 8.5 7.9 8.1 7.5A0.1 0.1 0 0 1 8.5 7.1A0.1 0.1 0 0 1 8.9 7.5ZM11.9 7.5C11.9 7.5 11.5 7.9 11.5 7.9C11.1 7.5 11.5 7.9 11.1 7.5A0.1 0.1 0 0 1 11.5 7.1A0.1 0.1 0 0 1 11.9 7.5ZM15.9 7.5C15.9 7.5 15.5 7.9 15.5 7.9C15.1 7.5 15.5 7.9 15.1 7.5A0.1 0.1 0 0 1 15.5 7.1A0.1 0.1 0 0 1 15.9 7.5ZM17.9 7.5C17.9 7.5 17.5 7.9 17.5 7.9C17.1 7.5 17.5 7.9 17.1 7.5A0.1 0.1 0 0 1 17.5 7.1A0.1 0.1 0 0 1 17.9 7.5ZM18.9 7.5C18.9 7.5 18.5 7.9 18.5 7.9C18.1 7.5 18.5 7.9 18.1 7.5A0.1 0.1 0 0 1 18.5 7.1A0.1 0.1 0 0 1 18.9 7.5ZM19.9 7.5C19.9 7.5 19.5 7.9 19.5 7.9C19.1 7.5 19.5 7.9 19.1 7.5A0.1 0.1 0 0 1 19.5 7.1A0.1 0.1 0 0 1 19.9 7.5ZM0.9 8.5C0.9 8.5 0.5 8.9 0.5 8.9C0.1 8.5 0.5 8.9 0.1 8.5A0.1 0.1 0 0 1 0.5 8.1A0.1 0.1 0 0 1 0.9 8.5ZM2.9 8.5C2.9 8.5 2.5 8.9 2.5 8.9C2.1 8.5 2.5 8.9 2.1 8.5A0.1 0.1 0 0 1 2.5 8.1A0.1 0.1 0 0 1 2.9 8.5ZM3.9 8.5C3.9 8.5 3.5 8.9 3.5 8.9C3.1 8.5 3.5 8.9 3.1 8.5A0.1 0.1 0 0 1 3.5 8.1A0.1 0.1 0 0 1 3.9 8.5ZM5.9 8.5C5.9 8.5 5.5 8.9 5.5 8.9C5.1 8.5 5.5 8.9 5.1 8.5A0.1 0.1 0 0 1 5.5 8.1A0.1 0.1 0 0 1 5.9 8.5ZM6.9 8.5C6.9 8.5 6.5 8.9 6.5 8.9C6.1 8.5 6.5 8.9 6.1 8.5A0.1 0.1 0 0 1 6.5 8.1A0.1 0.1 0 0 1 6.9 8.5ZM7.9 8.5C7.9 8.5 7.5 8.9 7.5 8.9C7.1 8.5 7.5 8.9 7.1 8.5A0.1 0.1 0 0 1 7.5 8.1A0.1 0.1 0 0 1 7.9 8.5ZM9.9 8.5C9.9 8.5 9.5 8.9 9.5 8.9C9.1 8.5 9.5 8.9 9.1 8.5A0.1 0.1 0 0 1 9.5 8.1A0.1 0.1 0 0 1 9.9 8.5ZM12.9 8.5C12.9 8.5 12.5 8.9 12.5 8.9C12.1 8.5 12.5 8.9 12.1 8.5A0.1 0.1 0 0 1 12.5 8.1A0.1 0.1 0 0 1 12.9 8.5ZM13.9 8.5C13.9 8.5 13.5 8.9 13.5 8.9C13.1 8.5 13.5 8.9 13.1 8.5A0.1 0.1 0 0 1 13.5 8.1A0.1 0.1 0 0 1 13.9 8.5ZM16.9 8.5C16.9 8.5 16.5 8.9 16.5 8.9C16.1 8.5 16.5 8.9 16.1 8.5A0.1 0.1 0 0 1 16.5 8.1A0.1 0.1 0 0 1 16.9 8.5ZM17.9 8.5C17.9 8.5 17.5 8.9 17.5 8.9C17.1 8.5 17.5 8.9 17.1 8.5A0.1 0.1 0 0 1 17.5 8.1A0.1 0.1 0 0 1 17.9 8.5ZM18.9 8.5C18.9 8.5 18.5 8.9 18.5 8.9C18.1 8.5 18.5 8.9 18.1 8.5A0.1 0.1 0 0 1 18.5 8.1A0.1 0.1 0 0 1 18.9 8.5ZM19.9 8.5C19.9 8.5 19.5 8.9 19.5 8.9C19.1 8.5 19.5 8.9 19.1 8.5A0.1 0.1 0 0 1 19.5 8.1A0.1 0.1 0 0 1 19.9 8.5ZM20.9 8.5C20.9 8.5 20.5 8.9 20.5 8.9C20.1 8.5 20.5 8.9 20.1 8.5A0.1 0.1 0 0 1 20.5 8.1A0.1 0.1 0 0 1 20.9 8.5ZM22.9 8.5C22.9 8.5 22.5 8.9 22.5 8.9C22.1 8.5 22.5 8.9 22.1 8.5A0.1 0.1 0 0 1 22.5 8.1A0.1 0.1 0 0 1 22.9 8.5ZM25.9 8.5C25.9 8.5 25.5 8.9 25.5 8.9C25.1 8.5 25.5 8.9 25.1 8.5A0.1 0.1 0 0 1 25.5 8.1A0.1 0.1 0 0 1 25.9 8.5ZM27.9 8.5C27.9 8.5 27.5 8.9 27.5 8.9C27.1 8.5 27.5 8.9 27.1 8.5A0.1 0.1 0 0 1 27.5 8.1A0.1 0.1 0 0 1 27.9 8.5ZM28.9 8.5C28.9 8.5 28.5 8.9 28.5 8.9C28.1 8.5 28.5 8.9 28.1 8.5A0.1 0.1 0 0 1 28.5 8.1A0.1 0.1 0 0 1 28.9 8.5ZM0.9 9.5C0.9 9.5 0.5 9.9 0.5 9.9C0.1 9.5 0.5 9.9 0.1 9.5A0.1 0.1 0 0 1 0.5 9.1A0.1 0.1 0 0 1 0.9 9.5ZM3.9 9.5C3.9 9.5 3.5 9.9 3.5 9.9C3.1 9.5 3.5 9.9 3.1 9.5A0.1 0.1 0 0 1 3.5 9.1A0.1 0.1 0 0 1 3.9 9.5ZM4.9 9.5C4.9 9.5 4.5 9.9 4.5 9.9C4.1 9.5 4.5 9.9 4.1 9.5A0.1 0.1 0 0 1 4.5 9.1A0.1 0.1 0 0 1 4.9 9.5ZM9.9 9.5C9.9 9.5 9.5 9.9 9.5 9.9C9.1 9.5 9.5 9.9 9.1 9.5A0.1 0.1 0 0 1 9.5 9.1A0.1 0.1 0 0 1 9.9 9.5ZM10.9 9.5C10.9 9.5 10.5 9.9 10.5 9.9C10.1 9.5 10.5 9.9 10.1 9.5A0.1 0.1 0 0 1 10.5 9.1A0.1 0.1 0 0 1 10.9 9.5ZM11.9 9.5C11.9 9.5 11.5 9.9 11.5 9.9C11.1 9.5 11.5 9.9 11.1 9.5A0.1 0.1 0 0 1 11.5 9.1A0.1 0.1 0 0 1 11.9 9.5ZM12.9 9.5C12.9 9.5 12.5 9.9 12.5 9.9C12.1 9.5 12.5 9.9 12.1 9.5A0.1 0.1 0 0 1 12.5 9.1A0.1 0.1 0 0 1 12.9 9.5ZM13.9 9.5C13.9 9.5 13.5 9.9 13.5 9.9C13.1 9.5 13.5 9.9 13.1 9.5A0.1 0.1 0 0 1 13.5 9.1A0.1 0.1 0 0 1 13.9 9.5ZM14.9 9.5C14.9 9.5 14.5 9.9 14.5 9.9C14.1 9.5 14.5 9.9 14.1 9.5A0.1 0.1 0 0 1 14.5 9.1A0.1 0.1 0 0 1 14.9 9.5ZM15.9 9.5C15.9 9.5 15.5 9.9 15.5 9.9C15.1 9.5 15.5 9.9 15.1 9.5A0.1 0.1 0 0 1 15.5 9.1A0.1 0.1 0 0 1 15.9 9.5ZM16.9 9.5C16.9 9.5 16.5 9.9 16.5 9.9C16.1 9.5 16.5 9.9 16.1 9.5A0.1 0.1 0 0 1 16.5 9.1A0.1 0.1 0 0 1 16.9 9.5ZM19.9 9.5C19.9 9.5 19.5 9.9 19.5 9.9C19.1 9.5 19.5 9.9 19.1 9.5A0.1 0.1 0 0 1 19.5 9.1A0.1 0.1 0 0 1 19.9 9.5ZM20.9 9.5C20.9 9.5 20.5 9.9 20.5 9.9C20.1 9.5 20.5 9.9 20.1 9.5A0.1 0.1 0 0 1 20.5 9.1A0.1 0.1 0 0 1 20.9 9.5ZM24.9 9.5C24.9 9.5 24.5 9.9 24.5 9.9C24.1 9.5 24.5 9.9 24.1 9.5A0.1 0.1 0 0 1 24.5 9.1A0.1 0.1 0 0 1 24.9 9.5ZM25.9 9.5C25.9 9.5 25.5 9.9 25.5 9.9C25.1 9.5 25.5 9.9 25.1 9.5A0.1 0.1 0 0 1 25.5 9.1A0.1 0.1 0 0 1 25.9 9.5ZM27.9 9.5C27.9 9.5 27.5 9.9 27.5 9.9C27.1 9.5 27.5 9.9 27.1 9.5A0.1 0.1 0 0 1 27.5 9.1A0.1 0.1 0 0 1 27.9 9.5ZM0.9 10.5C0.9 10.5 0.5 10.9 0.5 10.9C0.1 10.5 0.5 10.9 0.1 10.5A0.1 0.1 0 0 1 0.5 10.1A0.1 0.1 0 0 1 0.9 10.5ZM1.9 10.5C1.9 10.5 1.5 10.9 1.5 10.9C1.1 10.5 1.5 10.9 1.1 10.5A0.1 0.1 0 0 1 1.5 10.1A0.1 0.1 0 0 1 1.9 10.5ZM3.9 10.5C3.9 10.5 3.5 10.9 3.5 10.9C3.1 10.5 3.5 10.9 3.1 10.5A0.1 0.1 0 0 1 3.5 10.1A0.1 0.1 0 0 1 3.9 10.5ZM6.9 10.5C6.9 10.5 6.5 10.9 6.5 10.9C6.1 10.5 6.5 10.9 6.1 10.5A0.1 0.1 0 0 1 6.5 10.1A0.1 0.1 0 0 1 6.9 10.5ZM7.9 10.5C7.9 10.5 7.5 10.9 7.5 10.9C7.1 10.5 7.5 10.9 7.1 10.5A0.1 0.1 0 0 1 7.5 10.1A0.1 0.1 0 0 1 7.9 10.5ZM8.9 10.5C8.9 10.5 8.5 10.9 8.5 10.9C8.1 10.5 8.5 10.9 8.1 10.5A0.1 0.1 0 0 1 8.5 10.1A0.1 0.1 0 0 1 8.9 10.5ZM12.9 10.5C12.9 10.5 12.5 10.9 12.5 10.9C12.1 10.5 12.5 10.9 12.1 10.5A0.1 0.1 0 0 1 12.5 10.1A0.1 0.1 0 0 1 12.9 10.5ZM13.9 10.5C13.9 10.5 13.5 10.9 13.5 10.9C13.1 10.5 13.5 10.9 13.1 10.5A0.1 0.1 0 0 1 13.5 10.1A0.1 0.1 0 0 1 13.9 10.5ZM16.9 10.5C16.9 10.5 16.5 10.9 16.5 10.9C16.1 10.5 16.5 10.9 16.1 10.5A0.1 0.1 0 0 1 16.5 10.1A0.1 0.1 0 0 1 16.9 10.5ZM20.9 10.5C20.9 10.5 20.5 10.9 20.5 10.9C20.1 10.5 20.5 10.9 20.1 10.5A0.1 0.1 0 0 1 20.5 10.1A0.1 0.1 0 0 1 20.9 10.5ZM21.9 10.5C21.9 10.5 21.5 10.9 21.5 10.9C21.1 10.5 21.5 10.9 21.1 10.5A0.1 0.1 0 0 1 21.5 10.1A0.1 0.1 0 0 1 21.9 10.5ZM23.9 10.5C23.9 10.5 23.5 10.9 23.5 10.9C23.1 10.5 23.5 10.9 23.1 10.5A0.1 0.1 0 0 1 23.5 10.1A0.1 0.1 0 0 1 23.9 10.5ZM24.9 10.5C24.9 10.5 24.5 10.9 24.5 10.9C24.1 10.5 24.5 10.9 24.1 10.5A0.1 0.1 0 0 1 24.5 10.1A0.1 0.1 0 0 1 24.9 10.5ZM25.9 10.5C25.9 10.5 25.5 10.9 25.5 10.9C25.1 10.5 25.5 10.9 25.1 10.5A0.1 0.1 0 0 1 25.5 10.1A0.1 0.1 0 0 1 25.9 10.5ZM27.9 10.5C27.9 10.5 27.5 10.9 27.5 10.9C27.1 10.5 27.5 10.9 27.1 10.5A0.1 0.1 0 0 1 27.5 10.1A0.1 0.1 0 0 1 27.9 10.5ZM0.9 11.5C0.9 11.5 0.5 11.9 0.5 11.9C0.1 11.5 0.5 11.9 0.1 11.5A0.1 0.1 0 0 1 0.5 11.1A0.1 0.1 0 0 1 0.9 11.5ZM1.9 11.5C1.9 11.5 1.5 11.9 1.5 11.9C1.1 11.5 1.5 11.9 1.1 11.5A0.1 0.1 0 0 1 1.5 11.1A0.1 0.1 0 0 1 1.9 11.5ZM3.9 11.5C3.9 11.5 3.5 11.9 3.5 11.9C3.1 11.5 3.5 11.9 3.1 11.5A0.1 0.1 0 0 1 3.5 11.1A0.1 0.1 0 0 1 3.9 11.5ZM4.9 11.5C4.9 11.5 4.5 11.9 4.5 11.9C4.1 11.5 4.5 11.9 4.1 11.5A0.1 0.1 0 0 1 4.5 11.1A0.1 0.1 0 0 1 4.9 11.5ZM7.9 11.5C7.9 11.5 7.5 11.9 7.5 11.9C7.1 11.5 7.5 11.9 7.1 11.5A0.1 0.1 0 0 1 7.5 11.1A0.1 0.1 0 0 1 7.9 11.5ZM8.9 11.5C8.9 11.5 8.5 11.9 8.5 11.9C8.1 11.5 8.5 11.9 8.1 11.5A0.1 0.1 0 0 1 8.5 11.1A0.1 0.1 0 0 1 8.9 11.5ZM10.9 11.5C10.9 11.5 10.5 11.9 10.5 11.9C10.1 11.5 10.5 11.9 10.1 11.5A0.1 0.1 0 0 1 10.5 11.1A0.1 0.1 0 0 1 10.9 11.5ZM12.9 11.5C12.9 11.5 12.5 11.9 12.5 11.9C12.1 11.5 12.5 11.9 12.1 11.5A0.1 0.1 0 0 1 12.5 11.1A0.1 0.1 0 0 1 12.9 11.5ZM15.9 11.5C15.9 11.5 15.5 11.9 15.5 11.9C15.1 11.5 15.5 11.9 15.1 11.5A0.1 0.1 0 0 1 15.5 11.1A0.1 0.1 0 0 1 15.9 11.5ZM16.9 11.5C16.9 11.5 16.5 11.9 16.5 11.9C16.1 11.5 16.5 11.9 16.1 11.5A0.1 0.1 0 0 1 16.5 11.1A0.1 0.1 0 0 1 16.9 11.5ZM18.9 11.5C18.9 11.5 18.5 11.9 18.5 11.9C18.1 11.5 18.5 11.9 18.1 11.5A0.1 0.1 0 0 1 18.5 11.1A0.1 0.1 0 0 1 18.9 11.5ZM20.9 11.5C20.9 11.5 20.5 11.9 20.5 11.9C20.1 11.5 20.5 11.9 20.1 11.5A0.1 0.1 0 0 1 20.5 11.1A0.1 0.1 0 0 1 20.9 11.5ZM23.9 11.5C23.9 11.5 23.5 11.9 23.5 11.9C23.1 11.5 23.5 11.9 23.1 11.5A0.1 0.1 0 0 1 23.5 11.1A0.1 0.1 0 0 1 23.9 11.5ZM27.9 11.5C27.9 11.5 27.5 11.9 27.5 11.9C27.1 11.5 27.5 11.9 27.1 11.5A0.1 0.1 0 0 1 27.5 11.1A0.1 0.1 0 0 1 27.9 11.5ZM2.9 12.5C2.9 12.5 2.5 12.9 2.5 12.9C2.1 12.5 2.5 12.9 2.1 12.5A0.1 0.1 0 0 1 2.5 12.1A0.1 0.1 0 0 1 2.9 12.5ZM4.9 12.5C4.9 12.5 4.5 12.9 4.5 12.9C4.1 12.5 4.5 12.9 4.1 12.5A0.1 0.1 0 0 1 4.5 12.1A0.1 0.1 0 0 1 4.9 12.5ZM6.9 12.5C6.9 12.5 6.5 12.9 6.5 12.9C6.1 12.5 6.5 12.9 6.1 12.5A0.1 0.1 0 0 1 6.5 12.1A0.1 0.1 0 0 1 6.9 12.5ZM10.9 12.5C10.9 12.5 10.5 12.9 10.5 12.9C10.1 12.5 10.5 12.9 10.1 12.5A0.1 0.1 0 0 1 10.5 12.1A0.1 0.1 0 0 1 10.9 12.5ZM11.9 12.5C11.9 12.5 11.5 12.9 11.5 12.9C11.1 12.5 11.5 12.9 11.1 12.5A0.1 0.1 0 0 1 11.5 12.1A0.1 0.1 0 0 1 11.9 12.5ZM14.9 12.5C14.9 12.5 14.5 12.9 14.5 12.9C14.1 12.5 14.5 12.9 14.1 12.5A0.1 0.1 0 0 1 14.5 12.1A0.1 0.1 0 0 1 14.9 12.5ZM15.9 12.5C15.9 12.5 15.5 12.9 15.5 12.9C15.1 12.5 15.5 12.9 15.1 12.5A0.1 0.1 0 0 1 15.5 12.1A0.1 0.1 0 0 1 15.9 12.5ZM17.9 12.5C17.9 12.5 17.5 12.9 17.5 12.9C17.1 12.5 17.5 12.9 17.1 12.5A0.1 0.1 0 0 1 17.5 12.1A0.1 0.1 0 0 1 17.9 12.5ZM18.9 12.5C18.9 12.5 18.5 12.9 18.5 12.9C18.1 12.5 18.5 12.9 18.1 12.5A0.1 0.1 0 0 1 18.5 12.1A0.1 0.1 0 0 1 18.9 12.5ZM20.9 12.5C20.9 12.5 20.5 12.9 20.5 12.9C20.1 12.5 20.5 12.9 20.1 12.5A0.1 0.1 0 0 1 20.5 12.1A0.1 0.1 0 0 1 20.9 12.5ZM22.9 12.5C22.9 12.5 22.5 12.9 22.5 12.9C22.1 12.5 22.5 12.9 22.1 12.5A0.1 0.1 0 0 1 22.5 12.1A0.1 0.1 0 0 1 22.9 12.5ZM23.9 12.5C23.9 12.5 23.5 12.9 23.5 12.9C23.1 12.5 23.5 12.9 23.1 12.5A0.1 0.1 0 0 1 23.5 12.1A0.1 0.1 0 0 1 23.9 12.5ZM0.9 13.5C0.9 13.5 0.5 13.9 0.5 13.9C0.1 13.5 0.5 13.9 0.1 13.5A0.1 0.1 0 0 1 0.5 13.1A0.1 0.1 0 0 1 0.9 13.5ZM1.9 13.5C1.9 13.5 1.5 13.9 1.5 13.9C1.1 13.5 1.5 13.9 1.1 13.5A0.1 0.1 0 0 1 1.5 13.1A0.1 0.1 0 0 1 1.9 13.5ZM5.9 13.5C5.9 13.5 5.5 13.9 5.5 13.9C5.1 13.5 5.5 13.9 5.1 13.5A0.1 0.1 0 0 1 5.5 13.1A0.1 0.1 0 0 1 5.9 13.5ZM8.9 13.5C8.9 13.5 8.5 13.9 8.5 13.9C8.1 13.5 8.5 13.9 8.1 13.5A0.1 0.1 0 0 1 8.5 13.1A0.1 0.1 0 0 1 8.9 13.5ZM9.9 13.5C9.9 13.5 9.5 13.9 9.5 13.9C9.1 13.5 9.5 13.9 9.1 13.5A0.1 0.1 0 0 1 9.5 13.1A0.1 0.1 0 0 1 9.9 13.5ZM12.9 13.5C12.9 13.5 12.5 13.9 12.5 13.9C12.1 13.5 12.5 13.9 12.1 13.5A0.1 0.1 0 0 1 12.5 13.1A0.1 0.1 0 0 1 12.9 13.5ZM14.9 13.5C14.9 13.5 14.5 13.9 14.5 13.9C14.1 13.5 14.5 13.9 14.1 13.5A0.1 0.1 0 0 1 14.5 13.1A0.1 0.1 0 0 1 14.9 13.5ZM17.9 13.5C17.9 13.5 17.5 13.9 17.5 13.9C17.1 13.5 17.5 13.9 17.1 13.5A0.1 0.1 0 0 1 17.5 13.1A0.1 0.1 0 0 1 17.9 13.5ZM20.9 13.5C20.9 13.5 20.5 13.9 20.5 13.9C20.1 13.5 20.5 13.9 20.1 13.5A0.1 0.1 0 0 1 20.5 13.1A0.1 0.1 0 0 1 20.9 13.5ZM22.9 13.5C22.9 13.5 22.5 13.9 22.5 13.9C22.1 13.5 22.5 13.9 22.1 13.5A0.1 0.1 0 0 1 22.5 13.1A0.1 0.1 0 0 1 22.9 13.5ZM23.9 13.5C23.9 13.5 23.5 13.9 23.5 13.9C23.1 13.5 23.5 13.9 23.1 13.5A0.1 0.1 0 0 1 23.5 13.1A0.1 0.1 0 0 1 23.9 13.5ZM25.9 13.5C25.9 13.5 25.5 13.9 25.5 13.9C25.1 13.5 25.5 13.9 25.1 13.5A0.1 0.1 0 0 1 25.5 13.1A0.1 0.1 0 0 1 25.9 13.5ZM26.9 13.5C26.9 13.5 26.5 13.9 26.5 13.9C26.1 13.5 26.5 13.9 26.1 13.5A0.1 0.1 0 0 1 26.5 13.1A0.1 0.1 0 0 1 26.9 13.5ZM1.9 14.5C1.9 14.5 1.5 14.9 1.5 14.9C1.1 14.5 1.5 14.9 1.1 14.5A0.1 0.1 0 0 1 1.5 14.1A0.1 0.1 0 0 1 1.9 14.5ZM2.9 14.5C2.9 14.5 2.5 14.9 2.5 14.9C2.1 14.5 2.5 14.9 2.1 14.5A0.1 0.1 0 0 1 2.5 14.1A0.1 0.1 0 0 1 2.9 14.5ZM4.9 14.5C4.9 14.5 4.5 14.9 4.5 14.9C4.1 14.5 4.5 14.9 4.1 14.5A0.1 0.1 0 0 1 4.5 14.1A0.1 0.1 0 0 1 4.9 14.5ZM5.9 14.5C5.9 14.5 5.5 14.9 5.5 14.9C5.1 14.5 5.5 14.9 5.1 14.5A0.1 0.1 0 0 1 5.5 14.1A0.1 0.1 0 0 1 5.9 14.5ZM6.9 14.5C6.9 14.5 6.5 14.9 6.5 14.9C6.1 14.5 6.5 14.9 6.1 14.5A0.1 0.1 0 0 1 6.5 14.1A0.1 0.1 0 0 1 6.9 14.5ZM10.9 14.5C10.9 14.5 10.5 14.9 10.5 14.9C10.1 14.5 10.5 14.9 10.1 14.5A0.1 0.1 0 0 1 10.5 14.1A0.1 0.1 0 0 1 10.9 14.5ZM11.9 14.5C11.9 14.5 11.5 14.9 11.5 14.9C11.1 14.5 11.5 14.9 11.1 14.5A0.1 0.1 0 0 1 11.5 14.1A0.1 0.1 0 0 1 11.9 14.5ZM12.9 14.5C12.9 14.5 12.5 14.9 12.5 14.9C12.1 14.5 12.5 14.9 12.1 14.5A0.1 0.1 0 0 1 12.5 14.1A0.1 0.1 0 0 1 12.9 14.5ZM13.9 14.5C13.9 14.5 13.5 14.9 13.5 14.9C13.1 14.5 13.5 14.9 13.1 14.5A0.1 0.1 0 0 1 13.5 14.1A0.1 0.1 0 0 1 13.9 14.5ZM15.9 14.5C15.9 14.5 15.5 14.9 15.5 14.9C15.1 14.5 15.5 14.9 15.1 14.5A0.1 0.1 0 0 1 15.5 14.1A0.1 0.1 0 0 1 15.9 14.5ZM17.9 14.5C17.9 14.5 17.5 14.9 17.5 14.9C17.1 14.5 17.5 14.9 17.1 14.5A0.1 0.1 0 0 1 17.5 14.1A0.1 0.1 0 0 1 17.9 14.5ZM19.9 14.5C19.9 14.5 19.5 14.9 19.5 14.9C19.1 14.5 19.5 14.9 19.1 14.5A0.1 0.1 0 0 1 19.5 14.1A0.1 0.1 0 0 1 19.9 14.5ZM21.9 14.5C21.9 14.5 21.5 14.9 21.5 14.9C21.1 14.5 21.5 14.9 21.1 14.5A0.1 0.1 0 0 1 21.5 14.1A0.1 0.1 0 0 1 21.9 14.5ZM22.9 14.5C22.9 14.5 22.5 14.9 22.5 14.9C22.1 14.5 22.5 14.9 22.1 14.5A0.1 0.1 0 0 1 22.5 14.1A0.1 0.1 0 0 1 22.9 14.5ZM24.9 14.5C24.9 14.5 24.5 14.9 24.5 14.9C24.1 14.5 24.5 14.9 24.1 14.5A0.1 0.1 0 0 1 24.5 14.1A0.1 0.1 0 0 1 24.9 14.5ZM26.9 14.5C26.9 14.5 26.5 14.9 26.5 14.9C26.1 14.5 26.5 14.9 26.1 14.5A0.1 0.1 0 0 1 26.5 14.1A0.1 0.1 0 0 1 26.9 14.5ZM0.9 15.5C0.9 15.5 0.5 15.9 0.5 15.9C0.1 15.5 0.5 15.9 0.1 15.5A0.1 0.1 0 0 1 0.5 15.1A0.1 0.1 0 0 1 0.9 15.5ZM2.9 15.5C2.9 15.5 2.5 15.9 2.5 15.9C2.1 15.5 2.5 15.9 2.1 15.5A0.1 0.1 0 0 1 2.5 15.1A0.1 0.1 0 0 1 2.9 15.5ZM3.9 15.5C3.9 15.5 3.5 15.9 3.5 15.9C3.1 15.5 3.5 15.9 3.1 15.5A0.1 0.1 0 0 1 3.5 15.1A0.1 0.1 0 0 1 3.9 15.5ZM5.9 15.5C5.9 15.5 5.5 15.9 5.5 15.9C5.1 15.5 5.5 15.9 5.1 15.5A0.1 0.1 0 0 1 5.5 15.1A0.1 0.1 0 0 1 5.9 15.5ZM7.9 15.5C7.9 15.5 7.5 15.9 7.5 15.9C7.1 15.5 7.5 15.9 7.1 15.5A0.1 0.1 0 0 1 7.5 15.1A0.1 0.1 0 0 1 7.9 15.5ZM8.9 15.5C8.9 15.5 8.5 15.9 8.5 15.9C8.1 15.5 8.5 15.9 8.1 15.5A0.1 0.1 0 0 1 8.5 15.1A0.1 0.1 0 0 1 8.9 15.5ZM9.9 15.5C9.9 15.5 9.5 15.9 9.5 15.9C9.1 15.5 9.5 15.9 9.1 15.5A0.1 0.1 0 0 1 9.5 15.1A0.1 0.1 0 0 1 9.9 15.5ZM10.9 15.5C10.9 15.5 10.5 15.9 10.5 15.9C10.1 15.5 10.5 15.9 10.1 15.5A0.1 0.1 0 0 1 10.5 15.1A0.1 0.1 0 0 1 10.9 15.5ZM14.9 15.5C14.9 15.5 14.5 15.9 14.5 15.9C14.1 15.5 14.5 15.9 14.1 15.5A0.1 0.1 0 0 1 14.5 15.1A0.1 0.1 0 0 1 14.9 15.5ZM17.9 15.5C17.9 15.5 17.5 15.9 17.5 15.9C17.1 15.5 17.5 15.9 17.1 15.5A0.1 0.1 0 0 1 17.5 15.1A0.1 0.1 0 0 1 17.9 15.5ZM19.9 15.5C19.9 15.5 19.5 15.9 19.5 15.9C19.1 15.5 19.5 15.9 19.1 15.5A0.1 0.1 0 0 1 19.5 15.1A0.1 0.1 0 0 1 19.9 15.5ZM20.9 15.5C20.9 15.5 20.5 15.9 20.5 15.9C20.1 15.5 20.5 15.9 20.1 15.5A0.1 0.1 0 0 1 20.5 15.1A0.1 0.1 0 0 1 20.9 15.5ZM21.9 15.5C21.9 15.5 21.5 15.9 21.5 15.9C21.1 15.5 21.5 15.9 21.1 15.5A0.1 0.1 0 0 1 21.5 15.1A0.1 0.1 0 0 1 21.9 15.5ZM22.9 15.5C22.9 15.5 22.5 15.9 22.5 15.9C22.1 15.5 22.5 15.9 22.1 15.5A0.1 0.1 0 0 1 22.5 15.1A0.1 0.1 0 0 1 22.9 15.5ZM23.9 15.5C23.9 15.5 23.5 15.9 23.5 15.9C23.1 15.5 23.5 15.9 23.1 15.5A0.1 0.1 0 0 1 23.5 15.1A0.1 0.1 0 0 1 23.9 15.5ZM24.9 15.5C24.9 15.5 24.5 15.9 24.5 15.9C24.1 15.5 24.5 15.9 24.1 15.5A0.1 0.1 0 0 1 24.5 15.1A0.1 0.1 0 0 1 24.9 15.5ZM27.9 15.5C27.9 15.5 27.5 15.9 27.5 15.9C27.1 15.5 27.5 15.9 27.1 15.5A0.1 0.1 0 0 1 27.5 15.1A0.1 0.1 0 0 1 27.9 15.5ZM28.9 15.5C28.9 15.5 28.5 15.9 28.5 15.9C28.1 15.5 28.5 15.9 28.1 15.5A0.1 0.1 0 0 1 28.5 15.1A0.1 0.1 0 0 1 28.9 15.5ZM3.9 16.5C3.9 16.5 3.5 16.9 3.5 16.9C3.1 16.5 3.5 16.9 3.1 16.5A0.1 0.1 0 0 1 3.5 16.1A0.1 0.1 0 0 1 3.9 16.5ZM4.9 16.5C4.9 16.5 4.5 16.9 4.5 16.9C4.1 16.5 4.5 16.9 4.1 16.5A0.1 0.1 0 0 1 4.5 16.1A0.1 0.1 0 0 1 4.9 16.5ZM6.9 16.5C6.9 16.5 6.5 16.9 6.5 16.9C6.1 16.5 6.5 16.9 6.1 16.5A0.1 0.1 0 0 1 6.5 16.1A0.1 0.1 0 0 1 6.9 16.5ZM8.9 16.5C8.9 16.5 8.5 16.9 8.5 16.9C8.1 16.5 8.5 16.9 8.1 16.5A0.1 0.1 0 0 1 8.5 16.1A0.1 0.1 0 0 1 8.9 16.5ZM9.9 16.5C9.9 16.5 9.5 16.9 9.5 16.9C9.1 16.5 9.5 16.9 9.1 16.5A0.1 0.1 0 0 1 9.5 16.1A0.1 0.1 0 0 1 9.9 16.5ZM14.9 16.5C14.9 16.5 14.5 16.9 14.5 16.9C14.1 16.5 14.5 16.9 14.1 16.5A0.1 0.1 0 0 1 14.5 16.1A0.1 0.1 0 0 1 14.9 16.5ZM17.9 16.5C17.9 16.5 17.5 16.9 17.5 16.9C17.1 16.5 17.5 16.9 17.1 16.5A0.1 0.1 0 0 1 17.5 16.1A0.1 0.1 0 0 1 17.9 16.5ZM20.9 16.5C20.9 16.5 20.5 16.9 20.5 16.9C20.1 16.5 20.5 16.9 20.1 16.5A0.1 0.1 0 0 1 20.5 16.1A0.1 0.1 0 0 1 20.9 16.5ZM21.9 16.5C21.9 16.5 21.5 16.9 21.5 16.9C21.1 16.5 21.5 16.9 21.1 16.5A0.1 0.1 0 0 1 21.5 16.1A0.1 0.1 0 0 1 21.9 16.5ZM22.9 16.5C22.9 16.5 22.5 16.9 22.5 16.9C22.1 16.5 22.5 16.9 22.1 16.5A0.1 0.1 0 0 1 22.5 16.1A0.1 0.1 0 0 1 22.9 16.5ZM24.9 16.5C24.9 16.5 24.5 16.9 24.5 16.9C24.1 16.5 24.5 16.9 24.1 16.5A0.1 0.1 0 0 1 24.5 16.1A0.1 0.1 0 0 1 24.9 16.5ZM26.9 16.5C26.9 16.5 26.5 16.9 26.5 16.9C26.1 16.5 26.5 16.9 26.1 16.5A0.1 0.1 0 0 1 26.5 16.1A0.1 0.1 0 0 1 26.9 16.5ZM27.9 16.5C27.9 16.5 27.5 16.9 27.5 16.9C27.1 16.5 27.5 16.9 27.1 16.5A0.1 0.1 0 0 1 27.5 16.1A0.1 0.1 0 0 1 27.9 16.5ZM2.9 17.5C2.9 17.5 2.5 17.9 2.5 17.9C2.1 17.5 2.5 17.9 2.1 17.5A0.1 0.1 0 0 1 2.5 17.1A0.1 0.1 0 0 1 2.9 17.5ZM5.9 17.5C5.9 17.5 5.5 17.9 5.5 17.9C5.1 17.5 5.5 17.9 5.1 17.5A0.1 0.1 0 0 1 5.5 17.1A0.1 0.1 0 0 1 5.9 17.5ZM8.9 17.5C8.9 17.5 8.5 17.9 8.5 17.9C8.1 17.5 8.5 17.9 8.1 17.5A0.1 0.1 0 0 1 8.5 17.1A0.1 0.1 0 0 1 8.9 17.5ZM9.9 17.5C9.9 17.5 9.5 17.9 9.5 17.9C9.1 17.5 9.5 17.9 9.1 17.5A0.1 0.1 0 0 1 9.5 17.1A0.1 0.1 0 0 1 9.9 17.5ZM10.9 17.5C10.9 17.5 10.5 17.9 10.5 17.9C10.1 17.5 10.5 17.9 10.1 17.5A0.1 0.1 0 0 1 10.5 17.1A0.1 0.1 0 0 1 10.9 17.5ZM11.9 17.5C11.9 17.5 11.5 17.9 11.5 17.9C11.1 17.5 11.5 17.9 11.1 17.5A0.1 0.1 0 0 1 11.5 17.1A0.1 0.1 0 0 1 11.9 17.5ZM14.9 17.5C14.9 17.5 14.5 17.9 14.5 17.9C14.1 17.5 14.5 17.9 14.1 17.5A0.1 0.1 0 0 1 14.5 17.1A0.1 0.1 0 0 1 14.9 17.5ZM18.9 17.5C18.9 17.5 18.5 17.9 18.5 17.9C18.1 17.5 18.5 17.9 18.1 17.5A0.1 0.1 0 0 1 18.5 17.1A0.1 0.1 0 0 1 18.9 17.5ZM19.9 17.5C19.9 17.5 19.5 17.9 19.5 17.9C19.1 17.5 19.5 17.9 19.1 17.5A0.1 0.1 0 0 1 19.5 17.1A0.1 0.1 0 0 1 19.9 17.5ZM0.9 18.5C0.9 18.5 0.5 18.9 0.5 18.9C0.1 18.5 0.5 18.9 0.1 18.5A0.1 0.1 0 0 1 0.5 18.1A0.1 0.1 0 0 1 0.9 18.5ZM3.9 18.5C3.9 18.5 3.5 18.9 3.5 18.9C3.1 18.5 3.5 18.9 3.1 18.5A0.1 0.1 0 0 1 3.5 18.1A0.1 0.1 0 0 1 3.9 18.5ZM4.9 18.5C4.9 18.5 4.5 18.9 4.5 18.9C4.1 18.5 4.5 18.9 4.1 18.5A0.1 0.1 0 0 1 4.5 18.1A0.1 0.1 0 0 1 4.9 18.5ZM6.9 18.5C6.9 18.5 6.5 18.9 6.5 18.9C6.1 18.5 6.5 18.9 6.1 18.5A0.1 0.1 0 0 1 6.5 18.1A0.1 0.1 0 0 1 6.9 18.5ZM8.9 18.5C8.9 18.5 8.5 18.9 8.5 18.9C8.1 18.5 8.5 18.9 8.1 18.5A0.1 0.1 0 0 1 8.5 18.1A0.1 0.1 0 0 1 8.9 18.5ZM9.9 18.5C9.9 18.5 9.5 18.9 9.5 18.9C9.1 18.5 9.5 18.9 9.1 18.5A0.1 0.1 0 0 1 9.5 18.1A0.1 0.1 0 0 1 9.9 18.5ZM12.9 18.5C12.9 18.5 12.5 18.9 12.5 18.9C12.1 18.5 12.5 18.9 12.1 18.5A0.1 0.1 0 0 1 12.5 18.1A0.1 0.1 0 0 1 12.9 18.5ZM13.9 18.5C13.9 18.5 13.5 18.9 13.5 18.9C13.1 18.5 13.5 18.9 13.1 18.5A0.1 0.1 0 0 1 13.5 18.1A0.1 0.1 0 0 1 13.9 18.5ZM14.9 18.5C14.9 18.5 14.5 18.9 14.5 18.9C14.1 18.5 14.5 18.9 14.1 18.5A0.1 0.1 0 0 1 14.5 18.1A0.1 0.1 0 0 1 14.9 18.5ZM15.9 18.5C15.9 18.5 15.5 18.9 15.5 18.9C15.1 18.5 15.5 18.9 15.1 18.5A0.1 0.1 0 0 1 15.5 18.1A0.1 0.1 0 0 1 15.9 18.5ZM17.9 18.5C17.9 18.5 17.5 18.9 17.5 18.9C17.1 18.5 17.5 18.9 17.1 18.5A0.1 0.1 0 0 1 17.5 18.1A0.1 0.1 0 0 1 17.9 18.5ZM18.9 18.5C18.9 18.5 18.5 18.9 18.5 18.9C18.1 18.5 18.5 18.9 18.1 18.5A0.1 0.1 0 0 1 18.5 18.1A0.1 0.1 0 0 1 18.9 18.5ZM20.9 18.5C20.9 18.5 20.5 18.9 20.5 18.9C20.1 18.5 20.5 18.9 20.1 18.5A0.1 0.1 0 0 1 20.5 18.1A0.1 0.1 0 0 1 20.9 18.5ZM23.9 18.5C23.9 18.5 23.5 18.9 23.5 18.9C23.1 18.5 23.5 18.9 23.1 18.5A0.1 0.1 0 0 1 23.5 18.1A0.1 0.1 0 0 1 23.9 18.5ZM25.9 18.5C25.9 18.5 25.5 18.9 25.5 18.9C25.1 18.5 25.5 18.9 25.1 18.5A0.1 0.1 0 0 1 25.5 18.1A0.1 0.1 0 0 1 25.9 18.5ZM26.9 18.5C26.9 18.5 26.5 18.9 26.5 18.9C26.1 18.5 26.5 18.9 26.1 18.5A0.1 0.1 0 0 1 26.5 18.1A0.1 0.1 0 0 1 26.9 18.5ZM27.9 18.5C27.9 18.5 27.5 18.9 27.5 18.9C27.1 18.5 27.5 18.9 27.1 18.5A0.1 0.1 0 0 1 27.5 18.1A0.1 0.1 0 0 1 27.9 18.5ZM2.9 19.5C2.9 19.5 2.5 19.9 2.5 19.9C2.1 19.5 2.5 19.9 2.1 19.5A0.1 0.1 0 0 1 2.5 19.1A0.1 0.1 0 0 1 2.9 19.5ZM7.9 19.5C7.9 19.5 7.5 19.9 7.5 19.9C7.1 19.5 7.5 19.9 7.1 19.5A0.1 0.1 0 0 1 7.5 19.1A0.1 0.1 0 0 1 7.9 19.5ZM11.9 19.5C11.9 19.5 11.5 19.9 11.5 19.9C11.1 19.5 11.5 19.9 11.1 19.5A0.1 0.1 0 0 1 11.5 19.1A0.1 0.1 0 0 1 11.9 19.5ZM13.9 19.5C13.9 19.5 13.5 19.9 13.5 19.9C13.1 19.5 13.5 19.9 13.1 19.5A0.1 0.1 0 0 1 13.5 19.1A0.1 0.1 0 0 1 13.9 19.5ZM14.9 19.5C14.9 19.5 14.5 19.9 14.5 19.9C14.1 19.5 14.5 19.9 14.1 19.5A0.1 0.1 0 0 1 14.5 19.1A0.1 0.1 0 0 1 14.9 19.5ZM15.9 19.5C15.9 19.5 15.5 19.9 15.5 19.9C15.1 19.5 15.5 19.9 15.1 19.5A0.1 0.1 0 0 1 15.5 19.1A0.1 0.1 0 0 1 15.9 19.5ZM16.9 19.5C16.9 19.5 16.5 19.9 16.5 19.9C16.1 19.5 16.5 19.9 16.1 19.5A0.1 0.1 0 0 1 16.5 19.1A0.1 0.1 0 0 1 16.9 19.5ZM18.9 19.5C18.9 19.5 18.5 19.9 18.5 19.9C18.1 19.5 18.5 19.9 18.1 19.5A0.1 0.1 0 0 1 18.5 19.1A0.1 0.1 0 0 1 18.9 19.5ZM19.9 19.5C19.9 19.5 19.5 19.9 19.5 19.9C19.1 19.5 19.5 19.9 19.1 19.5A0.1 0.1 0 0 1 19.5 19.1A0.1 0.1 0 0 1 19.9 19.5ZM22.9 19.5C22.9 19.5 22.5 19.9 22.5 19.9C22.1 19.5 22.5 19.9 22.1 19.5A0.1 0.1 0 0 1 22.5 19.1A0.1 0.1 0 0 1 22.9 19.5ZM26.9 19.5C26.9 19.5 26.5 19.9 26.5 19.9C26.1 19.5 26.5 19.9 26.1 19.5A0.1 0.1 0 0 1 26.5 19.1A0.1 0.1 0 0 1 26.9 19.5ZM28.9 19.5C28.9 19.5 28.5 19.9 28.5 19.9C28.1 19.5 28.5 19.9 28.1 19.5A0.1 0.1 0 0 1 28.5 19.1A0.1 0.1 0 0 1 28.9 19.5ZM1.9 20.5C1.9 20.5 1.5 20.9 1.5 20.9C1.1 20.5 1.5 20.9 1.1 20.5A0.1 0.1 0 0 1 1.5 20.1A0.1 0.1 0 0 1 1.9 20.5ZM2.9 20.5C2.9 20.5 2.5 20.9 2.5 20.9C2.1 20.5 2.5 20.9 2.1 20.5A0.1 0.1 0 0 1 2.5 20.1A0.1 0.1 0 0 1 2.9 20.5ZM3.9 20.5C3.9 20.5 3.5 20.9 3.5 20.9C3.1 20.5 3.5 20.9 3.1 20.5A0.1 0.1 0 0 1 3.5 20.1A0.1 0.1 0 0 1 3.9 20.5ZM4.9 20.5C4.9 20.5 4.5 20.9 4.5 20.9C4.1 20.5 4.5 20.9 4.1 20.5A0.1 0.1 0 0 1 4.5 20.1A0.1 0.1 0 0 1 4.9 20.5ZM6.9 20.5C6.9 20.5 6.5 20.9 6.5 20.9C6.1 20.5 6.5 20.9 6.1 20.5A0.1 0.1 0 0 1 6.5 20.1A0.1 0.1 0 0 1 6.9 20.5ZM7.9 20.5C7.9 20.5 7.5 20.9 7.5 20.9C7.1 20.5 7.5 20.9 7.1 20.5A0.1 0.1 0 0 1 7.5 20.1A0.1 0.1 0 0 1 7.9 20.5ZM9.9 20.5C9.9 20.5 9.5 20.9 9.5 20.9C9.1 20.5 9.5 20.9 9.1 20.5A0.1 0.1 0 0 1 9.5 20.1A0.1 0.1 0 0 1 9.9 20.5ZM11.9 20.5C11.9 20.5 11.5 20.9 11.5 20.9C11.1 20.5 11.5 20.9 11.1 20.5A0.1 0.1 0 0 1 11.5 20.1A0.1 0.1 0 0 1 11.9 20.5ZM13.9 20.5C13.9 20.5 13.5 20.9 13.5 20.9C13.1 20.5 13.5 20.9 13.1 20.5A0.1 0.1 0 0 1 13.5 20.1A0.1 0.1 0 0 1 13.9 20.5ZM14.9 20.5C14.9 20.5 14.5 20.9 14.5 20.9C14.1 20.5 14.5 20.9 14.1 20.5A0.1 0.1 0 0 1 14.5 20.1A0.1 0.1 0 0 1 14.9 20.5ZM16.9 20.5C16.9 20.5 16.5 20.9 16.5 20.9C16.1 20.5 16.5 20.9 16.1 20.5A0.1 0.1 0 0 1 16.5 20.1A0.1 0.1 0 0 1 16.9 20.5ZM19.9 20.5C19.9 20.5 19.5 20.9 19.5 20.9C19.1 20.5 19.5 20.9 19.1 20.5A0.1 0.1 0 0 1 19.5 20.1A0.1 0.1 0 0 1 19.9 20.5ZM20.9 20.5C20.9 20.5 20.5 20.9 20.5 20.9C20.1 20.5 20.5 20.9 20.1 20.5A0.1 0.1 0 0 1 20.5 20.1A0.1 0.1 0 0 1 20.9 20.5ZM21.9 20.5C21.9 20.5 21.5 20.9 21.5 20.9C21.1 20.5 21.5 20.9 21.1 20.5A0.1 0.1 0 0 1 21.5 20.1A0.1 0.1 0 0 1 21.9 20.5ZM22.9 20.5C22.9 20.5 22.5 20.9 22.5 20.9C22.1 20.5 22.5 20.9 22.1 20.5A0.1 0.1 0 0 1 22.5 20.1A0.1 0.1 0 0 1 22.9 20.5ZM23.9 20.5C23.9 20.5 23.5 20.9 23.5 20.9C23.1 20.5 23.5 20.9 23.1 20.5A0.1 0.1 0 0 1 23.5 20.1A0.1 0.1 0 0 1 23.9 20.5ZM24.9 20.5C24.9 20.5 24.5 20.9 24.5 20.9C24.1 20.5 24.5 20.9 24.1 20.5A0.1 0.1 0 0 1 24.5 20.1A0.1 0.1 0 0 1 24.9 20.5ZM26.9 20.5C26.9 20.5 26.5 20.9 26.5 20.9C26.1 20.5 26.5 20.9 26.1 20.5A0.1 0.1 0 0 1 26.5 20.1A0.1 0.1 0 0 1 26.9 20.5ZM28.9 20.5C28.9 20.5 28.5 20.9 28.5 20.9C28.1 20.5 28.5 20.9 28.1 20.5A0.1 0.1 0 0 1 28.5 20.1A0.1 0.1 0 0 1 28.9 20.5ZM8.9 21.5C8.9 21.5 8.5 21.9 8.5 21.9C8.1 21.5 8.5 21.9 8.1 21.5A0.1 0.1 0 0 1 8.5 21.1A0.1 0.1 0 0 1 8.9 21.5ZM9.9 21.5C9.9 21.5 9.5 21.9 9.5 21.9C9.1 21.5 9.5 21.9 9.1 21.5A0.1 0.1 0 0 1 9.5 21.1A0.1 0.1 0 0 1 9.9 21.5ZM10.9 21.5C10.9 21.5 10.5 21.9 10.5 21.9C10.1 21.5 10.5 21.9 10.1 21.5A0.1 0.1 0 0 1 10.5 21.1A0.1 0.1 0 0 1 10.9 21.5ZM12.9 21.5C12.9 21.5 12.5 21.9 12.5 21.9C12.1 21.5 12.5 21.9 12.1 21.5A0.1 0.1 0 0 1 12.5 21.1A0.1 0.1 0 0 1 12.9 21.5ZM20.9 21.5C20.9 21.5 20.5 21.9 20.5 21.9C20.1 21.5 20.5 21.9 20.1 21.5A0.1 0.1 0 0 1 20.5 21.1A0.1 0.1 0 0 1 20.9 21.5ZM24.9 21.5C24.9 21.5 24.5 21.9 24.5 21.9C24.1 21.5 24.5 21.9 24.1 21.5A0.1 0.1 0 0 1 24.5 21.1A0.1 0.1 0 0 1 24.9 21.5ZM27.9 21.5C27.9 21.5 27.5 21.9 27.5 21.9C27.1 21.5 27.5 21.9 27.1 21.5A0.1 0.1 0 0 1 27.5 21.1A0.1 0.1 0 0 1 27.9 21.5ZM8.9 22.5C8.9 22.5 8.5 22.9 8.5 22.9C8.1 22.5 8.5 22.9 8.1 22.5A0.1 0.1 0 0 1 8.5 22.1A0.1 0.1 0 0 1 8.9 22.5ZM12.9 22.5C12.9 22.5 12.5 22.9 12.5 22.9C12.1 22.5 12.5 22.9 12.1 22.5A0.1 0.1 0 0 1 12.5 22.1A0.1 0.1 0 0 1 12.9 22.5ZM14.9 22.5C14.9 22.5 14.5 22.9 14.5 22.9C14.1 22.5 14.5 22.9 14.1 22.5A0.1 0.1 0 0 1 14.5 22.1A0.1 0.1 0 0 1 14.9 22.5ZM19.9 22.5C19.9 22.5 19.5 22.9 19.5 22.9C19.1 22.5 19.5 22.9 19.1 22.5A0.1 0.1 0 0 1 19.5 22.1A0.1 0.1 0 0 1 19.9 22.5ZM20.9 22.5C20.9 22.5 20.5 22.9 20.5 22.9C20.1 22.5 20.5 22.9 20.1 22.5A0.1 0.1 0 0 1 20.5 22.1A0.1 0.1 0 0 1 20.9 22.5ZM22.9 22.5C22.9 22.5 22.5 22.9 22.5 22.9C22.1 22.5 22.5 22.9 22.1 22.5A0.1 0.1 0 0 1 22.5 22.1A0.1 0.1 0 0 1 22.9 22.5ZM24.9 22.5C24.9 22.5 24.5 22.9 24.5 22.9C24.1 22.5 24.5 22.9 24.1 22.5A0.1 0.1 0 0 1 24.5 22.1A0.1 0.1 0 0 1 24.9 22.5ZM25.9 22.5C25.9 22.5 25.5 22.9 25.5 22.9C25.1 22.5 25.5 22.9 25.1 22.5A0.1 0.1 0 0 1 25.5 22.1A0.1 0.1 0 0 1 25.9 22.5ZM27.9 22.5C27.9 22.5 27.5 22.9 27.5 22.9C27.1 22.5 27.5 22.9 27.1 22.5A0.1 0.1 0 0 1 27.5 22.1A0.1 0.1 0 0 1 27.9 22.5ZM8.9 23.5C8.9 23.5 8.5 23.9 8.5 23.9C8.1 23.5 8.5 23.9 8.1 23.5A0.1 0.1 0 0 1 8.5 23.1A0.1 0.1 0 0 1 8.9 23.5ZM10.9 23.5C10.9 23.5 10.5 23.9 10.5 23.9C10.1 23.5 10.5 23.9 10.1 23.5A0.1 0.1 0 0 1 10.5 23.1A0.1 0.1 0 0 1 10.9 23.5ZM13.9 23.5C13.9 23.5 13.5 23.9 13.5 23.9C13.1 23.5 13.5 23.9 13.1 23.5A0.1 0.1 0 0 1 13.5 23.1A0.1 0.1 0 0 1 13.9 23.5ZM14.9 23.5C14.9 23.5 14.5 23.9 14.5 23.9C14.1 23.5 14.5 23.9 14.1 23.5A0.1 0.1 0 0 1 14.5 23.1A0.1 0.1 0 0 1 14.9 23.5ZM15.9 23.5C15.9 23.5 15.5 23.9 15.5 23.9C15.1 23.5 15.5 23.9 15.1 23.5A0.1 0.1 0 0 1 15.5 23.1A0.1 0.1 0 0 1 15.9 23.5ZM18.9 23.5C18.9 23.5 18.5 23.9 18.5 23.9C18.1 23.5 18.5 23.9 18.1 23.5A0.1 0.1 0 0 1 18.5 23.1A0.1 0.1 0 0 1 18.9 23.5ZM20.9 23.5C20.9 23.5 20.5 23.9 20.5 23.9C20.1 23.5 20.5 23.9 20.1 23.5A0.1 0.1 0 0 1 20.5 23.1A0.1 0.1 0 0 1 20.9 23.5ZM24.9 23.5C24.9 23.5 24.5 23.9 24.5 23.9C24.1 23.5 24.5 23.9 24.1 23.5A0.1 0.1 0 0 1 24.5 23.1A0.1 0.1 0 0 1 24.9 23.5ZM25.9 23.5C25.9 23.5 25.5 23.9 25.5 23.9C25.1 23.5 25.5 23.9 25.1 23.5A0.1 0.1 0 0 1 25.5 23.1A0.1 0.1 0 0 1 25.9 23.5ZM26.9 23.5C26.9 23.5 26.5 23.9 26.5 23.9C26.1 23.5 26.5 23.9 26.1 23.5A0.1 0.1 0 0 1 26.5 23.1A0.1 0.1 0 0 1 26.9 23.5ZM9.9 24.5C9.9 24.5 9.5 24.9 9.5 24.9C9.1 24.5 9.5 24.9 9.1 24.5A0.1 0.1 0 0 1 9.5 24.1A0.1 0.1 0 0 1 9.9 24.5ZM10.9 24.5C10.9 24.5 10.5 24.9 10.5 24.9C10.1 24.5 10.5 24.9 10.1 24.5A0.1 0.1 0 0 1 10.5 24.1A0.1 0.1 0 0 1 10.9 24.5ZM11.9 24.5C11.9 24.5 11.5 24.9 11.5 24.9C11.1 24.5 11.5 24.9 11.1 24.5A0.1 0.1 0 0 1 11.5 24.1A0.1 0.1 0 0 1 11.9 24.5ZM15.9 24.5C15.9 24.5 15.5 24.9 15.5 24.9C15.1 24.5 15.5 24.9 15.1 24.5A0.1 0.1 0 0 1 15.5 24.1A0.1 0.1 0 0 1 15.9 24.5ZM16.9 24.5C16.9 24.5 16.5 24.9 16.5 24.9C16.1 24.5 16.5 24.9 16.1 24.5A0.1 0.1 0 0 1 16.5 24.1A0.1 0.1 0 0 1 16.9 24.5ZM19.9 24.5C19.9 24.5 19.5 24.9 19.5 24.9C19.1 24.5 19.5 24.9 19.1 24.5A0.1 0.1 0 0 1 19.5 24.1A0.1 0.1 0 0 1 19.9 24.5ZM20.9 24.5C20.9 24.5 20.5 24.9 20.5 24.9C20.1 24.5 20.5 24.9 20.1 24.5A0.1 0.1 0 0 1 20.5 24.1A0.1 0.1 0 0 1 20.9 24.5ZM21.9 24.5C21.9 24.5 21.5 24.9 21.5 24.9C21.1 24.5 21.5 24.9 21.1 24.5A0.1 0.1 0 0 1 21.5 24.1A0.1 0.1 0 0 1 21.9 24.5ZM22.9 24.5C22.9 24.5 22.5 24.9 22.5 24.9C22.1 24.5 22.5 24.9 22.1 24.5A0.1 0.1 0 0 1 22.5 24.1A0.1 0.1 0 0 1 22.9 24.5ZM23.9 24.5C23.9 24.5 23.5 24.9 23.5 24.9C23.1 24.5 23.5 24.9 23.1 24.5A0.1 0.1 0 0 1 23.5 24.1A0.1 0.1 0 0 1 23.9 24.5ZM24.9 24.5C24.9 24.5 24.5 24.9 24.5 24.9C24.1 24.5 24.5 24.9 24.1 24.5A0.1 0.1 0 0 1 24.5 24.1A0.1 0.1 0 0 1 24.9 24.5ZM26.9 24.5C26.9 24.5 26.5 24.9 26.5 24.9C26.1 24.5 26.5 24.9 26.1 24.5A0.1 0.1 0 0 1 26.5 24.1A0.1 0.1 0 0 1 26.9 24.5ZM27.9 24.5C27.9 24.5 27.5 24.9 27.5 24.9C27.1 24.5 27.5 24.9 27.1 24.5A0.1 0.1 0 0 1 27.5 24.1A0.1 0.1 0 0 1 27.9 24.5ZM28.9 24.5C28.9 24.5 28.5 24.9 28.5 24.9C28.1 24.5 28.5 24.9 28.1 24.5A0.1 0.1 0 0 1 28.5 24.1A0.1 0.1 0 0 1 28.9 24.5ZM8.9 25.5C8.9 25.5 8.5 25.9 8.5 25.9C8.1 25.5 8.5 25.9 8.1 25.5A0.1 0.1 0 0 1 8.5 25.1A0.1 0.1 0 0 1 8.9 25.5ZM12.9 25.5C12.9 25.5 12.5 25.9 12.5 25.9C12.1 25.5 12.5 25.9 12.1 25.5A0.1 0.1 0 0 1 12.5 25.1A0.1 0.1 0 0 1 12.9 25.5ZM13.9 25.5C13.9 25.5 13.5 25.9 13.5 25.9C13.1 25.5 13.5 25.9 13.1 25.5A0.1 0.1 0 0 1 13.5 25.1A0.1 0.1 0 0 1 13.9 25.5ZM15.9 25.5C15.9 25.5 15.5 25.9 15.5 25.9C15.1 25.5 15.5 25.9 15.1 25.5A0.1 0.1 0 0 1 15.5 25.1A0.1 0.1 0 0 1 15.9 25.5ZM16.9 25.5C16.9 25.5 16.5 25.9 16.5 25.9C16.1 25.5 16.5 25.9 16.1 25.5A0.1 0.1 0 0 1 16.5 25.1A0.1 0.1 0 0 1 16.9 25.5ZM17.9 25.5C17.9 25.5 17.5 25.9 17.5 25.9C17.1 25.5 17.5 25.9 17.1 25.5A0.1 0.1 0 0 1 17.5 25.1A0.1 0.1 0 0 1 17.9 25.5ZM21.9 25.5C21.9 25.5 21.5 25.9 21.5 25.9C21.1 25.5 21.5 25.9 21.1 25.5A0.1 0.1 0 0 1 21.5 25.1A0.1 0.1 0 0 1 21.9 25.5ZM24.9 25.5C24.9 25.5 24.5 25.9 24.5 25.9C24.1 25.5 24.5 25.9 24.1 25.5A0.1 0.1 0 0 1 24.5 25.1A0.1 0.1 0 0 1 24.9 25.5ZM26.9 25.5C26.9 25.5 26.5 25.9 26.5 25.9C26.1 25.5 26.5 25.9 26.1 25.5A0.1 0.1 0 0 1 26.5 25.1A0.1 0.1 0 0 1 26.9 25.5ZM27.9 25.5C27.9 25.5 27.5 25.9 27.5 25.9C27.1 25.5 27.5 25.9 27.1 25.5A0.1 0.1 0 0 1 27.5 25.1A0.1 0.1 0 0 1 27.9 25.5ZM8.9 26.5C8.9 26.5 8.5 26.9 8.5 26.9C8.1 26.5 8.5 26.9 8.1 26.5A0.1 0.1 0 0 1 8.5 26.1A0.1 0.1 0 0 1 8.9 26.5ZM9.9 26.5C9.9 26.5 9.5 26.9 9.5 26.9C9.1 26.5 9.5 26.9 9.1 26.5A0.1 0.1 0 0 1 9.5 26.1A0.1 0.1 0 0 1 9.9 26.5ZM12.9 26.5C12.9 26.5 12.5 26.9 12.5 26.9C12.1 26.5 12.5 26.9 12.1 26.5A0.1 0.1 0 0 1 12.5 26.1A0.1 0.1 0 0 1 12.9 26.5ZM17.9 26.5C17.9 26.5 17.5 26.9 17.5 26.9C17.1 26.5 17.5 26.9 17.1 26.5A0.1 0.1 0 0 1 17.5 26.1A0.1 0.1 0 0 1 17.9 26.5ZM18.9 26.5C18.9 26.5 18.5 26.9 18.5 26.9C18.1 26.5 18.5 26.9 18.1 26.5A0.1 0.1 0 0 1 18.5 26.1A0.1 0.1 0 0 1 18.9 26.5ZM19.9 26.5C19.9 26.5 19.5 26.9 19.5 26.9C19.1 26.5 19.5 26.9 19.1 26.5A0.1 0.1 0 0 1 19.5 26.1A0.1 0.1 0 0 1 19.9 26.5ZM21.9 26.5C21.9 26.5 21.5 26.9 21.5 26.9C21.1 26.5 21.5 26.9 21.1 26.5A0.1 0.1 0 0 1 21.5 26.1A0.1 0.1 0 0 1 21.9 26.5ZM22.9 26.5C22.9 26.5 22.5 26.9 22.5 26.9C22.1 26.5 22.5 26.9 22.1 26.5A0.1 0.1 0 0 1 22.5 26.1A0.1 0.1 0 0 1 22.9 26.5ZM23.9 26.5C23.9 26.5 23.5 26.9 23.5 26.9C23.1 26.5 23.5 26.9 23.1 26.5A0.1 0.1 0 0 1 23.5 26.1A0.1 0.1 0 0 1 23.9 26.5ZM24.9 26.5C24.9 26.5 24.5 26.9 24.5 26.9C24.1 26.5 24.5 26.9 24.1 26.5A0.1 0.1 0 0 1 24.5 26.1A0.1 0.1 0 0 1 24.9 26.5ZM25.9 26.5C25.9 26.5 25.5 26.9 25.5 26.9C25.1 26.5 25.5 26.9 25.1 26.5A0.1 0.1 0 0 1 25.5 26.1A0.1 0.1 0 0 1 25.9 26.5ZM26.9 26.5C26.9 26.5 26.5 26.9 26.5 26.9C26.1 26.5 26.5 26.9 26.1 26.5A0.1 0.1 0 0 1 26.5 26.1A0.1 0.1 0 0 1 26.9 26.5ZM28.9 26.5C28.9 26.5 28.5 26.9 28.5 26.9C28.1 26.5 28.5 26.9 28.1 26.5A0.1 0.1 0 0 1 28.5 26.1A0.1 0.1 0 0 1 28.9 26.5ZM9.9 27.5C9.9 27.5 9.5 27.9 9.5 27.9C9.1 27.5 9.5 27.9 9.1 27.5A0.1 0.1 0 0 1 9.5 27.1A0.1 0.1 0 0 1 9.9 27.5ZM13.9 27.5C13.9 27.5 13.5 27.9 13.5 27.9C13.1 27.5 13.5 27.9 13.1 27.5A0.1 0.1 0 0 1 13.5 27.1A0.1 0.1 0 0 1 13.9 27.5ZM14.9 27.5C14.9 27.5 14.5 27.9 14.5 27.9C14.1 27.5 14.5 27.9 14.1 27.5A0.1 0.1 0 0 1 14.5 27.1A0.1 0.1 0 0 1 14.9 27.5ZM18.9 27.5C18.9 27.5 18.5 27.9 18.5 27.9C18.1 27.5 18.5 27.9 18.1 27.5A0.1 0.1 0 0 1 18.5 27.1A0.1 0.1 0 0 1 18.9 27.5ZM25.9 27.5C25.9 27.5 25.5 27.9 25.5 27.9C25.1 27.5 25.5 27.9 25.1 27.5A0.1 0.1 0 0 1 25.5 27.1A0.1 0.1 0 0 1 25.9 27.5ZM26.9 27.5C26.9 27.5 26.5 27.9 26.5 27.9C26.1 27.5 26.5 27.9 26.1 27.5A0.1 0.1 0 0 1 26.5 27.1A0.1 0.1 0 0 1 26.9 27.5ZM28.9 27.5C28.9 27.5 28.5 27.9 28.5 27.9C28.1 27.5 28.5 27.9 28.1 27.5A0.1 0.1 0 0 1 28.5 27.1A0.1 0.1 0 0 1 28.9 27.5ZM8.9 28.5C8.9 28.5 8.5 28.9 8.5 28.9C8.1 28.5 8.5 28.9 8.1 28.5A0.1 0.1 0 0 1 8.5 28.1A0.1 0.1 0 0 1 8.9 28.5ZM10.9 28.5C10.9 28.5 10.5 28.9 10.5 28.9C10.1 28.5 10.5 28.9 10.1 28.5A0.1 0.1 0 0 1 10.5 28.1A0.1 0.1 0 0 1 10.9 28.5ZM12.9 28.5C12.9 28.5 12.5 28.9 12.5 28.9C12.1 28.5 12.5 28.9 12.1 28.5A0.1 0.1 0 0 1 12.5 28.1A0.1 0.1 0 0 1 12.9 28.5ZM13.9 28.5C13.9 28.5 13.5 28.9 13.5 28.9C13.1 28.5 13.5 28.9 13.1 28.5A0.1 0.1 0 0 1 13.5 28.1A0.1 0.1 0 0 1 13.9 28.5ZM14.9 28.5C14.9 28.5 14.5 28.9 14.5 28.9C14.1 28.5 14.5 28.9 14.1 28.5A0.1 0.1 0 0 1 14.5 28.1A0.1 0.1 0 0 1 14.9 28.5ZM16.9 28.5C16.9 28.5 16.5 28.9 16.5 28.9C16.1 28.5 16.5 28.9 16.1 28.5A0.1 0.1 0 0 1 16.5 28.1A0.1 0.1 0 0 1 16.9 28.5ZM17.9 28.5C17.9 28.5 17.5 28.9 17.5 28.9C17.1 28.5 17.5 28.9 17.1 28.5A0.1 0.1 0 0 1 17.5 28.1A0.1 0.1 0 0 1 17.9 28.5ZM18.9 28.5C18.9 28.5 18.5 28.9 18.5 28.9C18.1 28.5 18.5 28.9 18.1 28.5A0.1 0.1 0 0 1 18.5 28.1A0.1 0.1 0 0 1 18.9 28.5ZM19.9 28.5C19.9 28.5 19.5 28.9 19.5 28.9C19.1 28.5 19.5 28.9 19.1 28.5A0.1 0.1 0 0 1 19.5 28.1A0.1 0.1 0 0 1 19.9 28.5ZM20.9 28.5C20.9 28.5 20.5 28.9 20.5 28.9C20.1 28.5 20.5 28.9 20.1 28.5A0.1 0.1 0 0 1 20.5 28.1A0.1 0.1 0 0 1 20.9 28.5ZM22.9 28.5C22.9 28.5 22.5 28.9 22.5 28.9C22.1 28.5 22.5 28.9 22.1 28.5A0.1 0.1 0 0 1 22.5 28.1A0.1 0.1 0 0 1 22.9 28.5ZM23.9 28.5C23.9 28.5 23.5 28.9 23.5 28.9C23.1 28.5 23.5 28.9 23.1 28.5A0.1 0.1 0 0 1 23.5 28.1A0.1 0.1 0 0 1 23.9 28.5ZM25.9 28.5C25.9 28.5 25.5 28.9 25.5 28.9C25.1 28.5 25.5 28.9 25.1 28.5A0.1 0.1 0 0 1 25.5 28.1A0.1 0.1 0 0 1 25.9 28.5ZM27.9 28.5C27.9 28.5 27.5 28.9 27.5 28.9C27.1 28.5 27.5 28.9 27.1 28.5A0.1 0.1 0 0 1 27.5 28.1A0.1 0.1 0 0 1 27.9 28.5Z" fill="#000000"/></g></g></svg>
