<svg width="24" height="25" viewBox="0 0 24 25" fill="none" xmlns="http://www.w3.org/2000/svg">
<path d="M12 21C13.8097 21 15.5451 20.8212 17.1534 20.4934C19.1623 20.0839 20.1668 19.8791 21.0834 18.7006C22 17.5221 22 16.1693 22 13.4635V11.5365C22 8.83073 22 7.47787 21.0834 6.29937C20.1668 5.12088 19.1623 4.91613 17.1534 4.50662C15.5451 4.17877 13.8097 4 12 4C10.1903 4 8.45489 4.17877 6.84656 4.50662C4.83766 4.91613 3.83321 5.12088 2.9166 6.29937C2 7.47787 2 8.83073 2 11.5365V13.4635C2 16.1693 2 17.5221 2.9166 18.7006C3.83321 19.8791 4.83766 20.0839 6.84656 20.4934C8.45489 20.8212 10.1903 21 12 21Z" stroke="white" stroke-width="1.5"/>
<path d="M15.9621 12.8129C15.8137 13.4187 15.0241 13.8538 13.4449 14.7241C11.7272 15.6705 10.8684 16.1438 10.1728 15.9615C9.9372 15.8997 9.7202 15.7911 9.53799 15.6438C9 15.2089 9 14.3059 9 12.5C9 10.6941 9 9.79112 9.53799 9.35618C9.7202 9.20886 9.9372 9.10029 10.1728 9.03854C10.8684 8.85621 11.7272 9.32945 13.4449 10.2759C15.0241 11.1462 15.8137 11.5813 15.9621 12.1871C16.0126 12.3933 16.0126 12.6067 15.9621 12.8129Z" stroke="white" stroke-width="1.5" stroke-linejoin="round"/>
</svg>
