<svg width="302" height="154" viewBox="0 0 302 154" fill="none" xmlns="http://www.w3.org/2000/svg">
<path d="M66.4486 10.9209C58.9093 12.03 54.7775 13.0539 49.9217 14.9735C28.6667 23.4201 13.4176 42.0622 9.37103 64.5436C7.8802 72.8622 8.43394 85.0201 10.6489 92.7841C17.0382 115.138 34.3744 132.415 56.5239 138.472C65.1282 140.818 62.9558 140.776 150.361 140.733C197.855 140.733 232.4 140.562 234.274 140.306C262.514 136.766 284.536 116.332 290.585 88.1342C291.862 82.2472 291.948 70.4306 290.755 64.2023C286.368 40.7397 269.585 21.3724 247.18 13.9071C245.263 13.2672 241.898 12.3287 239.726 11.8167L235.765 10.9209L151.639 10.8356C105.381 10.7929 67.0449 10.8356 66.4486 10.9209ZM82.6348 29.6057C90.9835 32.5065 96.9894 39.5879 98.4376 48.2051C98.6506 49.4849 98.821 66.8046 98.821 86.6838V122.859H51.5403V85.6173C51.5403 54.476 51.6681 48.0345 52.1792 46.0721C54.4794 37.455 61.5502 30.6721 70.2822 28.8378C74.1158 28.0273 78.9716 28.3259 82.6348 29.6057ZM151.852 65.6954C151.852 100.719 151.809 103.193 151.085 105.582C148.53 113.858 142.225 120.086 134.175 122.219C131.151 123.029 125.23 123.029 122.248 122.219C114.326 120.129 107.723 113.644 105.466 105.795C103.251 98.0738 105.338 89.3287 110.705 83.4843C115.391 78.4079 120.161 76.2323 128.084 75.5497C131.577 75.2511 133.068 74.8672 135.24 73.8433C138.392 72.3929 141.714 69.2788 143.163 66.5059C145.122 62.6666 145.25 61.3015 145.25 44.2378V28.1126L148.572 28.2406L151.852 28.3685V65.6954ZM187.845 29.2644C195.81 31.5253 202.2 38.1802 204.244 46.3708C204.84 48.6317 204.883 52.8123 204.798 76.8721L204.67 104.729L203.392 107.8C199.473 117.185 191.295 122.859 181.583 122.859C174.64 122.859 169.486 120.726 164.588 115.777C161.18 112.365 159.306 109.037 158.241 104.345C157.645 101.87 157.602 97.7325 157.688 74.3126L157.815 47.1386L158.838 44.4938C163.353 32.2505 175.62 25.809 187.845 29.2644ZM241.004 29.2217C256.466 33.701 263.792 54.2201 253.186 63.5198C250.375 65.994 247.308 67.1458 243.645 67.1458C239.215 67.1032 236.148 65.8661 233.507 63.0505C232.4 61.8561 230.781 60.1924 229.929 59.2539C226.394 55.6278 221.112 56.9076 218.386 62.0267C217.449 63.7757 217.449 63.8611 217.321 93.296L217.193 122.859H210.846V85.8306C210.846 53.8361 210.932 48.4611 211.485 46.2854C214.339 35.322 224.221 27.942 235.466 28.4112C237.17 28.4539 239.641 28.8378 241.004 29.2217Z" fill="white"/>
<path d="M71.134 58.9978C67.5134 59.8083 64.8725 61.3867 62.189 64.2876C58.6962 67.9989 57.7165 70.6011 57.7591 76.1468C57.7591 79.8582 57.9295 80.7541 58.9092 82.887C59.5055 84.2095 61.039 86.3851 62.2742 87.7075C70.7507 96.7086 84.8923 94.4903 90.3871 83.3136C91.7075 80.5834 91.7927 80.1568 91.7927 75.9336C91.7927 71.7103 91.7075 71.2837 90.3871 68.5962C86.8091 61.3441 78.716 57.2914 71.134 58.9978ZM122.291 88.1341C116.029 89.7978 111.216 94.4903 111.174 98.9269C111.131 105.411 117.733 110.573 126.763 111.213C136.986 111.938 145.676 106.478 145.676 99.3535C145.676 94.1491 141.501 89.9685 134.388 88.0488C131.619 87.2809 125.23 87.3236 122.291 88.1341ZM178.091 58.9125C173.235 59.7657 167.91 63.9036 165.695 68.5535C160.84 78.877 167.186 90.9496 178.559 93.0399C185.928 94.405 193.595 90.3097 196.918 83.3136C198.196 80.6261 198.281 80.0715 198.281 75.9336C198.281 71.9662 198.153 71.1984 197.131 68.9801C195.555 65.61 193.808 63.477 191.125 61.7707C186.95 59.0405 182.776 58.102 178.091 58.9125Z" fill="white"/>
</svg>
