<svg width="58" height="50" viewBox="0 0 58 50" fill="none" xmlns="http://www.w3.org/2000/svg">
<g clip-path="url(#clip0_470_79)">
<path d="M15.2023 14.3956C15.0809 14.3956 14.762 14.6112 14.4179 14.775C14.193 14.882 13.815 15.038 13.379 15.1694C12.8413 15.3316 12.3632 15.4319 11.4775 15.4319C10.7439 15.4319 9.86538 15.2998 8.79099 15.0224C8.30715 14.8957 7.81885 14.7873 7.3271 14.6975C6.81398 14.6045 6.33586 14.5532 5.8933 14.5532C5.23193 14.5532 4.59736 14.6273 3.99178 14.7761C3.34823 14.9328 2.72872 15.1784 2.15044 15.506C2.04814 15.5645 2 15.6597 2 15.7829V19.2254C2 19.3736 2.06619 19.4411 2.18107 19.4411C2.25547 19.4411 2.31564 19.4004 2.3419 19.3842C2.75656 19.1213 3.34791 18.8672 3.99178 18.7034C4.61317 18.5415 5.2519 18.4588 5.8933 18.4571C6.34571 18.4571 6.81398 18.5028 7.3271 18.5953C7.84023 18.6878 8.32546 18.8048 8.79099 18.9179C10.0016 19.2121 10.8927 19.348 11.4775 19.348C12.0935 19.348 12.7144 19.2455 13.379 19.041C13.7351 18.9326 14.0825 18.7963 14.4179 18.6332C14.6887 18.5006 14.9458 18.3507 15.1892 18.1802C15.2904 18.1095 15.3402 18.0326 15.3402 17.9033V14.5666C15.3402 14.4574 15.3035 14.3956 15.2023 14.3956ZM31.6081 31.9511H25.5721C25.089 31.9511 24.7067 31.808 24.4249 31.521C24.1427 31.2347 24.0026 30.8447 24.0026 30.3527V14.6145C24.0026 14.4507 23.9216 14.3683 23.7608 14.3683H20.3199C20.1585 14.3683 20.0781 14.4507 20.0781 14.6145V31.1216C20.0781 32.5562 20.5054 33.7089 21.3609 34.5797C22.216 35.4511 23.3473 35.8857 24.7559 35.8857H31.6071C31.7679 35.8857 31.8488 35.8043 31.8488 35.6405V32.1974C31.8499 32.0336 31.769 31.9511 31.6081 31.9511ZM53.2935 19.5486C52.3378 17.8376 51.0402 16.4849 49.4002 15.4909C47.7601 14.497 45.9751 14 44.043 14C42.1114 14 40.3204 14.497 38.6705 15.4904C37.0206 16.4843 35.7132 17.837 34.7471 19.548C33.7815 21.259 33.2985 23.1193 33.2985 25.1267C33.2985 27.1558 33.7815 29.0211 34.7471 30.7215C35.7132 32.4225 37.0206 33.7752 38.6705 34.7792C40.3204 35.7837 42.1114 36.2857 44.043 36.2857C45.9746 36.2857 47.7601 35.7893 49.4002 34.7948C51.0402 33.8009 52.3378 32.4487 53.2935 30.7371C54.2492 29.0267 54.7273 27.1558 54.7273 25.1267C54.7273 23.1193 54.2497 21.2596 53.2935 19.5486ZM49.9735 28.8005C49.3597 29.9382 48.5298 30.8402 47.4833 31.5054C46.4374 32.1718 45.2902 32.5044 44.043 32.5044C42.8154 32.5044 41.6683 32.1668 40.6021 31.4898C39.5443 30.8231 38.6715 29.892 38.0665 28.7849C37.4429 27.6578 37.1311 26.4388 37.1311 25.1267C37.1311 23.8358 37.4429 22.6218 38.0665 21.4841C38.6902 20.347 39.5353 19.4455 40.6021 18.7792C41.6683 18.1139 42.8149 17.7802 44.043 17.7802C45.2902 17.7802 46.4374 18.1139 47.4833 18.7792C48.5298 19.4455 49.3591 20.342 49.9735 21.4691C50.5867 22.5967 50.8941 23.8157 50.8941 25.1267C50.8941 26.4388 50.5873 27.6634 49.9735 28.8005ZM15.0989 22.1761H6.67831C5.26968 22.1761 4.13784 22.6123 3.28282 23.4826C2.42724 24.3539 2 25.5067 2 26.9408V35.6394C2 35.8043 2.08042 35.8857 2.24179 35.8857H5.68269C5.84352 35.8857 5.92449 35.8043 5.92449 35.6394V27.7096C5.92449 27.2177 6.06508 26.8288 6.3468 26.5413C6.62853 26.2549 7.01091 26.1112 7.49395 26.1112H15.0995C15.2603 26.1112 15.3413 26.0293 15.3413 25.8649V22.4218C15.3402 22.2585 15.2598 22.1761 15.0989 22.1761Z" fill="#3F3FFF"/>
</g>
<defs>
<clipPath id="clip0_470_79">
<rect width="58" height="50" fill="white"/>
</clipPath>
</defs>
</svg>
