<svg width="63" height="30" viewBox="0 0 63 30" fill="none" xmlns="http://www.w3.org/2000/svg">
<mask id="mask0_470_97" style="mask-type:luminance" maskUnits="userSpaceOnUse" x="0" y="0" width="63" height="30">
<path d="M62.1665 0H0.888672V29.8108H62.1665V0Z" fill="white"/>
</mask>
<g mask="url(#mask0_470_97)">
<path fill-rule="evenodd" clip-rule="evenodd" d="M10.6588 6.23214C10.8243 6.13621 11.0112 6.08346 11.2024 6.07871C11.3935 6.07394 11.5828 6.11733 11.7529 6.20489C11.923 6.29245 12.0685 6.42142 12.1761 6.57996C12.2837 6.7385 12.3501 6.92159 12.369 7.1125L12.3745 7.22614V24.0041C12.3745 27.1808 9.75631 29.7631 6.53923 29.7631C5.73695 29.7632 4.94309 29.5991 4.20618 29.2809C3.46929 28.9626 2.80484 28.4968 2.25349 27.9121C1.53765 27.1481 1.57573 25.9464 2.33706 25.2292C2.6836 24.9026 3.13987 24.7186 3.61528 24.7139C4.0907 24.7093 4.55047 24.8842 4.90329 25.204L5.0147 25.313C5.40837 25.734 5.95058 25.965 6.53923 25.965C7.61901 25.965 8.50754 25.1611 8.58182 24.1447L8.58738 24.0049V22.996C7.98303 23.3108 7.31207 23.4751 6.63115 23.475C5.14566 23.4733 3.71845 22.8948 2.64875 21.8605C1.57906 20.8263 0.949933 19.4167 0.893309 17.9273L0.888672 17.7168V12.1086C0.888672 8.93281 3.46512 6.34952 6.63115 6.34952C7.46674 6.34952 8.22715 6.59174 8.9012 7.00629L9.10082 7.13578L10.6588 6.23214ZM45.8954 6.0775C46.373 6.0773 46.8333 6.25824 47.1835 6.58407C47.534 6.90988 47.7486 7.35652 47.7847 7.83447L47.7904 7.97607V21.5763C47.797 22.0722 47.61 22.551 47.2695 22.9104C46.929 23.2699 46.4618 23.4814 45.9679 23.5C45.4741 23.5183 44.9924 23.3423 44.6263 23.0094C44.2599 22.6764 44.038 22.213 44.0079 21.7179L44.0032 21.5763V7.97607C44.0032 6.92711 44.8508 6.0775 45.8972 6.0775H45.8954ZM35.1206 6.0775C36.6065 6.07858 38.0341 6.65691 39.1043 7.69119C40.1744 8.72548 40.8037 10.1353 40.8603 11.6251L40.8641 11.8356V21.5763C40.8706 22.0722 40.6838 22.551 40.3433 22.9104C40.0028 23.2699 39.5356 23.4814 39.0417 23.5C38.5478 23.5183 38.0662 23.3423 37.7001 23.0094C37.3337 22.6764 37.1118 22.213 37.0815 21.7179L37.0768 21.5763V11.8356C37.0768 10.755 36.1996 9.87465 35.1206 9.87465C34.0901 9.87465 33.2423 10.6795 33.171 11.6959L33.1653 11.8356V21.5763C33.1677 22.0694 32.9789 22.544 32.6387 22.8999C32.2987 23.2558 31.834 23.465 31.3429 23.4834C30.8518 23.5018 30.3729 23.3279 30.0072 22.9985C29.6417 22.6689 29.4181 22.2098 29.3838 21.7179L29.3782 21.5763V11.8356C29.3782 8.66079 31.9547 6.0775 35.1206 6.0775ZM20.9154 6.0775C22.401 6.07882 23.8284 6.65725 24.8983 7.69152C25.9682 8.72578 26.5975 10.1355 26.6542 11.6251L26.6578 11.8356V13.4259C26.6578 14.5456 25.9336 15.5088 24.8771 15.8238L24.7165 15.8666L18.96 17.1821V17.7168C18.9613 18.1506 19.1057 18.5717 19.3707 18.9146C19.6357 19.2574 20.0063 19.5025 20.4247 19.6116C20.8432 19.7208 21.2859 19.6878 21.6837 19.5179C22.0815 19.3481 22.4121 19.0509 22.6237 18.6726L22.6925 18.5375C22.9117 18.0944 23.2945 17.7546 23.7594 17.5903C24.2244 17.4258 24.7348 17.4499 25.1825 17.6572C25.6302 17.8644 25.9796 18.2387 26.1566 18.7003C26.3335 19.162 26.3242 19.6747 26.1305 20.1295C25.6684 21.1272 24.9323 21.9718 24.0086 22.5644C23.0848 23.157 22.0118 23.4728 20.9154 23.475C19.4295 23.4738 18.0019 22.8955 16.9319 21.8612C15.8616 20.8269 15.2323 19.417 15.1757 17.9273L15.172 17.7168V11.8356C15.172 8.66079 17.7483 6.0775 20.9154 6.0775ZM56.4156 6.0775C57.9014 6.07858 59.3291 6.65691 60.3992 7.69119C61.4694 8.72548 62.0987 10.1353 62.1554 11.6251L62.159 11.8356V13.4259C62.159 14.5456 61.4348 15.5088 60.3783 15.8247L60.2177 15.8666L54.4612 17.1821V17.7168C54.4628 18.1502 54.6074 18.5711 54.8722 18.9134C55.1372 19.2559 55.5077 19.5008 55.9257 19.61C56.3439 19.719 56.7863 19.6863 57.1839 19.5167C57.5815 19.3472 57.9121 19.0504 58.1239 18.6726L58.1927 18.5375C58.4091 18.0896 58.792 17.7448 59.2591 17.5772C59.7261 17.4095 60.24 17.4325 60.6905 17.641C61.141 17.8495 61.4917 18.2269 61.6678 18.6923C61.8438 19.1577 61.8307 19.6737 61.6317 20.1295C61.1694 21.1274 60.4333 21.9722 59.5093 22.5646C58.5853 23.1571 57.5122 23.473 56.4156 23.475C54.93 23.4733 53.5029 22.8948 52.4332 21.8605C51.3635 20.8263 50.7343 19.4167 50.6779 17.9273L50.6732 17.7168V11.8356C50.6732 8.66079 53.2495 6.0775 56.4156 6.0775ZM6.63207 10.1476C5.60057 10.1476 4.75288 10.9525 4.68046 11.9689L4.67582 12.1086V17.7168C4.67582 18.7975 5.5532 19.6777 6.63115 19.6777C7.9124 19.6777 8.53168 18.6968 8.58367 17.7158L8.58738 17.5827V12.2427C8.58738 11.2189 7.97275 10.1476 6.63207 10.1476ZM20.9154 9.87465C19.8838 9.87465 19.0362 10.6795 18.9646 11.6959L18.9592 11.8356V13.2871L22.8707 12.3927V11.8356C22.8707 10.755 21.9932 9.87465 20.9154 9.87465ZM56.4156 9.87465C55.385 9.87465 54.5374 10.6795 54.4658 11.6959L54.4604 11.8356V13.2871L58.3719 12.3927V11.8356C58.3719 10.755 57.4944 9.87465 56.4156 9.87465ZM45.8962 0.0668945C46.3618 0.0672589 46.8165 0.206078 47.2034 0.465796C47.5901 0.725515 47.8915 1.09447 48.0694 1.52602C48.2473 1.95758 48.2937 2.43235 48.2026 2.89033C48.1115 3.3483 47.8872 3.76892 47.558 4.09901C47.2288 4.42909 46.8094 4.65383 46.353 4.74481C45.8964 4.83576 45.4232 4.78889 44.9933 4.6101C44.5633 4.4313 44.1958 4.12862 43.9373 3.7403C43.6788 3.35198 43.5408 2.89546 43.5408 2.42847C43.5408 1.12423 44.5955 0.0668945 45.8962 0.0668945Z" fill="#0096FF"/>
</g>
</svg>
