<svg width="50" height="50" viewBox="0 0 50 50" fill="none" xmlns="http://www.w3.org/2000/svg">
<path d="M23.5001 19C17.1488 19 12 23.9249 12 30C12 36.0753 17.1488 41 23.5001 41C29.8514 41 35 36.0753 35 30C35 23.9249 29.8514 19 23.5001 19ZM23.5001 25.1982C26.2682 25.1982 28.5204 27.3522 28.5204 30C28.5204 32.6478 26.2682 34.8018 23.5001 34.8018C20.7318 34.8018 18.48 32.6478 18.48 30C18.48 27.3522 20.7318 25.1982 23.5001 25.1982Z" fill="#04E532"/>
<path d="M39 14.5001C39 16.9853 36.9853 19 34.4998 19C32.0144 19 30 16.9853 30 14.5001C30 12.0151 32.0144 10 34.4998 10C36.9853 10 39 12.0151 39 14.5001Z" fill="#04E532"/>
</svg>
