<svg width="50" height="50" viewBox="0 0 50 50" fill="none" xmlns="http://www.w3.org/2000/svg">
<path d="M23.0001 17C15.2681 17 9 23.0442 9 30.5C9 37.956 15.2681 44 23.0001 44C30.7321 44 37 37.956 37 30.5C37 23.0442 30.7321 17 23.0001 17ZM23.0001 24.6069C26.37 24.6069 29.1118 27.2505 29.1118 30.5C29.1118 33.7495 26.37 36.3931 23.0001 36.3931C19.63 36.3931 16.8887 33.7495 16.8887 30.5C16.8887 27.2505 19.63 24.6069 23.0001 24.6069Z" fill="#04E532"/>
<path d="M42 12.0001C42 14.7615 39.5376 17 36.4998 17C33.462 17 31 14.7615 31 12.0001C31 9.23894 33.462 7 36.4998 7C39.5376 7 42 9.23894 42 12.0001Z" fill="#04E532"/>
</svg>
